<?xml version="1.0" encoding="iso-8859-1"?>
<!-- Generator: Adobe Illustrator 16.0.0, SVG Export Plug-In . SVG Version: 6.00 Build 0)  -->
<!DOCTYPE svg PUBLIC "-//W3C//DTD SVG 1.1//EN" "http://www.w3.org/Graphics/SVG/1.1/DTD/svg11.dtd">
<svg version="1.1" id="Layer_1" xmlns="http://www.w3.org/2000/svg" xmlns:xlink="http://www.w3.org/1999/xlink" x="0px" y="0px"
	 width="500px" height="500px" viewBox="0 0 500 500" style="enable-background:new 0 0 500 500;" xml:space="preserve">
<g>
	<g>
		<g>
			<path style="fill:#010101;" d="M317.258,365.89c0,0,7.834,23.883,3.004,40.344c0,0,17.055,2.587,32.772,21.123
				c0,0-7.296-17.748-2.06-39.376C350.975,387.979,330.432,381.354,317.258,365.89z"/>
			<path style="fill:#010101;" d="M357.109,434.061l-5.012-5.911c-15.243-17.976-31.853-20.677-32.02-20.703l-1.391-0.21l0.396-1.35
				c4.669-15.911-2.916-39.38-2.993-39.615l-1.947-5.935l4.051,4.755c12.784,15.008,32.956,21.652,33.158,21.718l1.084,0.35
				l-0.268,1.108c-5.075,20.96,1.931,38.446,2.002,38.62L357.109,434.061z M321.792,405.288c3.991,0.92,16.104,4.592,28.367,17.091
				c-1.783-6.785-3.865-19.23-0.634-33.599c-4.031-1.447-18.346-7.122-29.685-18.313
				C321.814,378.15,324.813,393.246,321.792,405.288z"/>
		</g>
		<path style="fill:#010101;" d="M249.328,422.579c-94.847,0-172.012-77.155-172.012-171.994
			c0-94.84,77.165-171.998,172.012-171.998c94.846,0,172.01,77.158,172.01,171.998C421.337,345.424,344.174,422.579,249.328,422.579
			z M249.328,81.045c-93.492,0-169.554,76.056-169.554,169.54c0,93.482,76.062,169.536,169.554,169.536
			c93.491,0,169.552-76.054,169.552-169.536C418.879,157.101,342.819,81.045,249.328,81.045z"/>
		<g>
			<g>
				<g>
					<path style="fill:#010101;" d="M134.655,317.75c0,0-24.477,7.597-41.185,2.405c0,0-2.917,17.345-22.072,33.071
						c0,0,18.218-7.15,40.183-1.464C111.581,351.762,118.673,330.925,134.655,317.75z"/>
					<path style="fill:#010101;" d="M64.633,357.191l5.985-4.915c18.535-15.217,21.611-32.157,21.64-32.327l0.236-1.384l1.341,0.416
						c3.758,1.167,8.259,1.759,13.379,1.759c13.5,0,26.942-4.123,27.076-4.165l5.966-1.852l-4.82,3.974
						c-15.533,12.805-22.621,33.254-22.692,33.459l-0.368,1.079l-1.104-0.286c-5.528-1.431-11.315-2.157-17.195-2.157
						c-12.937,0-22.139,3.541-22.23,3.575L64.633,357.191z M94.392,321.701c-0.995,4.033-4.939,16.387-17.972,28.735
						c4.095-1.006,10.249-2.099,17.657-2.099c5.705,0,11.326,0.66,16.726,1.963c1.531-4.063,7.571-18.64,19.228-30.042
						c-5.239,1.255-13.925,2.94-22.817,2.94C102.412,323.199,98.107,322.696,94.392,321.701z"/>
				</g>
				<g>
					<path style="fill:#FFFFFF;" d="M90.364,342.437c-2.056-3.747,1.603-9.704,8.176-13.314c6.571-3.608,13.57-3.495,15.623,0.254
						c2.061,3.749-1.599,9.711-8.17,13.321C99.416,346.301,92.421,346.191,90.364,342.437z"/>
					<path style="fill:#010101;" d="M96.699,346.557c-3.532,0-6.166-1.253-7.413-3.529c-2.417-4.406,1.387-10.987,8.662-14.983
						c3.272-1.795,6.782-2.784,9.885-2.784c3.531,0,6.163,1.252,7.407,3.526c1.217,2.215,0.906,5.038-0.879,7.946
						c-1.653,2.694-4.415,5.195-7.778,7.042C103.31,345.569,99.799,346.557,96.699,346.557z M107.833,327.718
						c-2.697,0-5.788,0.881-8.702,2.482c-5.866,3.22-9.387,8.553-7.69,11.645c1.612,2.944,8.274,2.891,13.96-0.225
						c2.994-1.644,5.433-3.837,6.866-6.173c1.302-2.123,1.593-4.069,0.818-5.479C112.302,328.538,110.388,327.718,107.833,327.718z"
						/>
				</g>
			</g>
			<g>
				<g>
					<path style="fill:#010101;" d="M72.485,143.445c0,0,18.222,18.021,21.5,35.205c0,0,16.679-5.588,39.567,3.915
						c0,0-14.88-12.709-20.196-34.768C113.356,147.797,91.632,151.347,72.485,143.445z"/>
					<path style="fill:#010101;" d="M140.236,186.67l-7.156-2.971c-8.715-3.618-17.507-5.453-26.132-5.453
						c-7.761,0-12.527,1.553-12.574,1.568l-1.333,0.443l-0.264-1.377c-3.169-16.617-20.978-34.384-21.157-34.562l-4.442-4.393
						l5.776,2.382c10.122,4.178,21.02,5.055,28.38,5.055c6.958,0,11.775-0.771,11.824-0.78l1.125-0.183l0.268,1.108
						c5.152,21.385,19.653,33.997,19.799,34.122L140.236,186.67z M106.948,175.789c7.194,0,14.492,1.227,21.76,3.651
						c-4.77-5.307-12.505-15.663-16.276-30.271c-1.851,0.236-5.851,0.653-11.097,0.653c-6.421,0-15.465-0.652-24.458-3.481
						c5.354,6.028,15.175,18.388,18.04,30.774C96.92,176.613,101.111,175.789,106.948,175.789z"/>
				</g>
				<g>
					<path style="fill:#FFFFFF;" d="M115.11,170.906c-2.337,3.577-9.32,3.154-15.599-0.95c-6.274-4.1-9.467-10.329-7.125-13.905
						c2.339-3.581,9.324-3.156,15.6,0.943C114.261,161.099,117.455,167.325,115.11,170.906z"/>
					<path style="fill:#010101;" d="M109.532,174.563c-3.316,0-7.215-1.304-10.693-3.579c-3.21-2.098-5.773-4.803-7.215-7.617
						c-1.557-3.036-1.651-5.875-0.266-7.989c1.258-1.926,3.606-2.987,6.611-2.987c3.315,0,7.211,1.304,10.689,3.575
						c3.212,2.101,5.774,4.807,7.216,7.621c1.557,3.038,1.65,5.876,0.264,7.993C114.88,173.503,112.535,174.563,109.532,174.563z
						 M97.969,154.849c-2.146,0-3.764,0.666-4.554,1.875c-0.881,1.346-0.739,3.307,0.397,5.524c1.25,2.44,3.513,4.812,6.371,6.68
						c3.091,2.02,6.497,3.178,9.349,3.178c2.145,0,3.76-0.665,4.549-1.871c0.882-1.348,0.742-3.31-0.395-5.528
						c-1.25-2.438-3.513-4.813-6.373-6.684C104.226,156.005,100.819,154.849,97.969,154.849z"/>
				</g>
			</g>
			<g>
				<g>
					<path style="fill:#010101;" d="M152.124,67.748c0,0,6.011,24.913-0.243,41.249c0,0,17.122,4.025,31.585,24.146
						c0,0-5.965-18.636,1.121-40.19C184.587,92.953,164.249,84.54,152.124,67.748z"/>
					<path style="fill:#010101;" d="M187.008,140.176l-4.541-6.315c-14.031-19.522-30.7-23.629-30.867-23.668l-1.37-0.322
						l0.503-1.314c6.042-15.784,0.254-40.275,0.196-40.521l-1.462-6.066l3.652,5.06c11.771,16.302,31.737,24.706,31.938,24.789
						l1.052,0.436l-0.355,1.083c-6.882,20.933-1.176,39.25-1.119,39.432L187.008,140.176z M153.483,108.175
						c3.959,1.253,16.027,5.98,27.507,19.762c-1.264-7.023-2.393-19.897,2.087-34.302c-3.956-1.788-18.112-8.749-28.743-21.105
						C155.717,80.475,157.561,96.142,153.483,108.175z"/>
				</g>
				<g>
					<path style="fill:#FFFFFF;" d="M173.919,113.526c-3.871,1.812-9.585-2.223-12.766-9.013
						c-3.177-6.786-2.614-13.766,1.259-15.575c3.875-1.813,9.589,2.223,12.77,9.01C178.356,104.741,177.797,111.713,173.919,113.526
						z"/>
					<path style="fill:#010101;" d="M171.912,115.188c-4.256,0-9.027-4.081-11.872-10.154c-1.626-3.472-2.381-7.121-2.127-10.273
						c0.275-3.402,1.688-5.866,3.978-6.937c0.779-0.364,1.63-0.549,2.529-0.549c4.257,0,9.03,4.08,11.875,10.152
						c3.517,7.522,2.702,15.083-1.854,17.212C173.661,115.003,172.811,115.188,171.912,115.188z M164.42,89.733
						c-0.536,0-1.037,0.107-1.487,0.318c-1.456,0.679-2.368,2.423-2.57,4.907c-0.221,2.732,0.455,5.942,1.902,9.033
						c2.766,5.906,7.977,9.891,11.132,8.421c3.198-1.495,3.505-7.88,0.67-13.944C171.696,93.407,167.639,89.733,164.42,89.733z"/>
				</g>
			</g>
			<g>
				<g>
					<path style="fill:#010101;" d="M353.228,71.291c0,0-16.874,19.291-33.826,23.619c0,0,6.599,16.303-1.483,39.725
						c0,0,11.772-15.626,33.468-22.284C351.386,112.35,346.513,90.886,353.228,71.291z"/>
					<path style="fill:#010101;" d="M314.219,141.587l2.538-7.354c7.841-22.724,1.57-38.705,1.506-38.863l-0.528-1.303l1.363-0.348
						c16.38-4.181,33.039-23.047,33.204-23.237l4.111-4.698l-2.022,5.905c-6.526,19.045-1.854,40.177-1.805,40.388l0.252,1.112
						l-1.091,0.335c-21.07,6.466-32.731,21.696-32.846,21.849L314.219,141.587z M320.997,95.743
						c1.264,3.956,4.372,16.537-0.255,33.864c5.005-5.086,14.865-13.438,29.218-18.096c-0.825-4.263-3.314-19.839,0.641-35.655
						C344.908,81.572,333.179,92.124,320.997,95.743z"/>
				</g>
				<g>
					<path style="fill:#FFFFFF;" d="M328.425,115.518c-3.714-2.117-3.719-9.111-0.007-15.626c3.707-6.514,9.729-10.083,13.443-7.964
						c3.721,2.112,3.723,9.111,0.015,15.625C338.162,114.068,332.144,117.635,328.425,115.518z"/>
					<path style="fill:#010101;" d="M330.834,117.358c-1.103,0-2.118-0.261-3.018-0.772c-4.37-2.491-4.574-10.091-0.467-17.302
						c3.13-5.5,7.994-9.195,12.104-9.195c1.103,0,2.119,0.259,3.018,0.773c1.456,0.827,2.504,2.271,3.027,4.173
						c1.003,3.648,0.049,8.556-2.554,13.128C339.809,113.663,334.941,117.358,330.834,117.358z M339.453,92.546
						c-3.204,0-7.302,3.27-9.967,7.953c-3.312,5.814-3.52,12.203-0.453,13.95c0.523,0.299,1.129,0.45,1.8,0.45
						c3.202,0,7.304-3.271,9.973-7.955c2.253-3.958,3.142-8.271,2.321-11.258c-0.352-1.279-0.983-2.185-1.875-2.691
						C340.729,92.697,340.124,92.546,339.453,92.546z"/>
				</g>
			</g>
			<g>
				<g>
					<path style="fill:#010101;" d="M429.701,148.601c0,0-24.726,6.738-41.241,0.965c0,0-3.524,17.231-23.218,32.276
						c0,0,18.458-6.51,40.213-0.058C405.456,181.785,413.267,161.209,429.701,148.601z"/>
					<path style="fill:#010101;" d="M358.339,185.568l6.156-4.703c19.107-14.596,22.726-31.377,22.76-31.545l0.282-1.378
						l1.328,0.463c4.306,1.506,9.616,2.27,15.781,2.27c12.626-0.001,24.611-3.228,24.731-3.26l6.029-1.643l-4.958,3.803
						c-15.954,12.24-23.768,32.443-23.844,32.646l-0.405,1.066l-1.093-0.324c-6.269-1.859-12.878-2.802-19.64-2.802
						c-11.594,0-19.736,2.812-19.816,2.841L358.339,185.568z M385.466,177.703c6.615,0,13.089,0.873,19.263,2.594
						c1.672-4.007,8.216-18.365,20.264-29.352c-4.769,0.967-12.363,2.187-20.347,2.188c-5.854,0-11-0.669-15.32-1.99
						c-1.136,3.995-5.511,16.204-18.969,28.088C373.988,178.473,379.215,177.703,385.466,177.703z"/>
				</g>
				<g>
					<path style="fill:#FFFFFF;" d="M384.506,171.583c-1.882-3.836,2.047-9.623,8.779-12.928c6.729-3.303,13.716-2.866,15.594,0.972
						c1.887,3.838-2.041,9.627-8.771,12.933C393.374,175.861,386.391,175.429,384.506,171.583z"/>
					<path style="fill:#010101;" d="M391.338,176.006c-3.833,0-6.726-1.415-7.936-3.881c-2.213-4.513,1.889-10.913,9.342-14.572
						c3.079-1.511,6.384-2.344,9.307-2.344c3.836,0,6.727,1.414,7.933,3.879c1.115,2.267,0.675,5.072-1.241,7.896
						c-1.775,2.616-4.649,4.989-8.094,6.68C397.566,175.174,394.26,176.006,391.338,176.006z M402.05,157.667
						c-2.555,0-5.476,0.743-8.224,2.092c-6.007,2.95-9.77,8.118-8.217,11.284c0.781,1.593,2.869,2.506,5.729,2.506
						c2.554,0,5.476-0.743,8.228-2.09c3.067-1.506,5.603-3.585,7.142-5.854c1.398-2.062,1.777-3.991,1.068-5.434
						C406.997,158.579,404.911,157.667,402.05,157.667z"/>
				</g>
			</g>
			<g>
				<g>
					<path style="fill:#010101;" d="M363.989,319.322c0,0,18.945,17.26,22.923,34.297c0,0,16.437-6.265,39.693,2.294
						c0,0-15.385-12.09-21.6-33.913C405.004,322.001,383.445,326.434,363.989,319.322z"/>
					<path style="fill:#010101;" d="M433.451,359.743l-7.271-2.675c-7.988-2.94-16.021-4.431-23.879-4.431
						c-9.211,0-14.896,2.111-14.952,2.131l-1.313,0.497l-0.32-1.366c-3.843-16.462-22.367-33.498-22.554-33.668l-4.612-4.207
						l5.863,2.144c7.204,2.634,15.521,3.969,24.72,3.969c8.985,0,15.561-1.326,15.625-1.339l1.116-0.229l0.313,1.097
						c6.025,21.156,21.027,33.165,21.178,33.284L433.451,359.743z M402.3,350.179c6.378,0,12.861,0.944,19.338,2.813
						c-4.983-5.106-13.137-15.138-17.502-29.583c-2.281,0.388-7.846,1.186-15.005,1.186c-7.464,0-14.38-0.857-20.631-2.554
						c5.599,5.807,15.91,17.751,19.278,30.006C390.041,351.381,395.125,350.179,402.3,350.179z"/>
				</g>
				<g>
					<path style="fill:#FFFFFF;" d="M408.204,344.518c-2.189,3.667-9.182,3.533-15.625-0.312c-6.436-3.84-9.88-9.932-7.687-13.6
						c2.192-3.675,9.185-3.538,15.625,0.302C406.954,334.753,410.401,340.84,408.204,344.518z"/>
					<path style="fill:#010101;" d="M402.238,348.411c-3.231,0-6.886-1.119-10.289-3.15c-4.517-2.694-7.765-6.494-8.69-10.163
						c-0.481-1.913-0.282-3.684,0.579-5.123c1.256-2.106,3.753-3.267,7.027-3.267c3.229,0,6.881,1.116,10.281,3.145
						c7.13,4.259,10.692,10.978,8.113,15.296C408.004,347.251,405.51,348.411,402.238,348.411z M390.865,329.166
						c-2.374,0-4.121,0.734-4.917,2.069c-0.526,0.881-0.628,1.978-0.305,3.263c0.757,3.004,3.656,6.32,7.566,8.653
						c2.984,1.781,6.273,2.802,9.028,2.802c2.372,0,4.117-0.733,4.912-2.065c1.81-3.03-1.516-8.491-7.262-11.924
						C396.906,330.186,393.617,329.166,390.865,329.166z"/>
				</g>
			</g>
			<g>
				<g>
					<path style="fill:#010101;" d="M250.497,5.132c0,0-2.506,54.638-17.716,75.356c0,0,13.705,11.027,18.049,35.423
						c0,0,2.677-19.382,18.381-35.759C269.211,80.152,257.516,70.297,250.497,5.132z"/>
					<path style="fill:#010101;" d="M250.984,123.783l-1.364-7.656c-4.205-23.605-17.478-34.575-17.611-34.683l-0.912-0.737
						l0.694-0.947c14.817-20.187,17.453-74.143,17.478-74.686L251.719,5c6.821,63.325,18.184,74.123,18.298,74.225l0.951,0.847
						l-0.869,0.932c-15.252,15.905-18.024,34.887-18.051,35.076L250.984,123.783z M234.424,80.295
						c2.872,2.651,11.951,12.153,16.424,29.852c1.895-6.875,6.438-18.966,16.693-30.017c-2.68-3.376-10.835-16.97-16.774-62.31
						C249.104,34.986,244.803,65.176,234.424,80.295z"/>
				</g>
				<g>
					<path style="fill:#FFFFFF;" d="M250.936,93.604c-4.681-0.043-8.414-6.831-8.342-15.165c0.077-8.327,3.937-15.049,8.621-15.001
						c4.683,0.041,8.418,6.831,8.347,15.16C259.479,86.928,255.625,93.646,250.936,93.604z"/>
					<path style="fill:#010101;" d="M250.98,94.833h-0.055c-5.439-0.051-9.639-7.256-9.56-16.405
						c0.084-9.096,4.388-16.22,9.799-16.22c5.503,0.048,9.706,7.251,9.626,16.4C260.702,87.706,256.393,94.833,250.98,94.833z
						 M251.204,64.666c-3.95,0-7.313,6.313-7.381,13.783c-0.064,7.512,3.198,13.889,7.124,13.925l0.034,1.229v-1.229
						c3.912,0,7.278-6.315,7.352-13.79C258.397,71.075,255.132,64.7,251.204,64.666z"/>
				</g>
			</g>
			<g>
				<g>
					<path style="fill:#010101;" d="M183.3,365.328c0,0-16.79,19.365-33.723,23.763c0,0,6.668,16.273-1.312,39.734
						c0,0,11.706-15.679,33.37-22.431C181.635,406.394,176.67,384.953,183.3,365.328z"/>
					<path style="fill:#010101;" d="M144.607,435.763l2.495-7.334c7.722-22.699,1.402-38.714,1.337-38.874l-0.529-1.3l1.358-0.354
						c16.361-4.249,32.937-23.188,33.102-23.378l4.092-4.715l-1.999,5.914c-6.444,19.073-1.68,40.184-1.631,40.395l0.257,1.111
						l-1.089,0.34c-21.002,6.545-32.636,21.839-32.751,21.993L144.607,435.763z M151.176,389.917
						c1.281,3.951,4.442,16.52-0.11,33.869c4.983-5.108,14.809-13.504,29.139-18.224c-0.842-4.259-3.399-19.824,0.487-35.656
						C175.024,375.647,163.342,386.248,151.176,389.917z"/>
				</g>
				<g>
					<path style="fill:#FFFFFF;" d="M158.69,409.661c-3.723-2.098-3.757-9.095-0.076-15.626c3.68-6.531,9.687-10.125,13.41-8.021
						c3.726,2.098,3.761,9.097,0.083,15.625C168.42,408.168,162.418,411.764,158.69,409.661z"/>
					<path style="fill:#010101;" d="M161.077,411.49c-1.092,0-2.098-0.254-2.991-0.758c-2.202-1.241-3.423-3.803-3.44-7.215
						c-0.016-3.161,1.014-6.742,2.897-10.084c3.117-5.532,7.977-9.249,12.094-9.249c1.092,0,2.098,0.256,2.991,0.76
						c2.201,1.24,3.424,3.803,3.442,7.215c0.017,3.163-1.01,6.744-2.894,10.084C170.054,407.774,165.192,411.49,161.077,411.49z
						 M169.638,386.641c-3.207,0-7.3,3.289-9.953,7.998c-1.677,2.975-2.594,6.125-2.581,8.866c0.012,2.491,0.79,4.297,2.189,5.086
						c0.52,0.293,1.12,0.442,1.783,0.442c3.205,0,7.3-3.289,9.959-7.997c1.675-2.974,2.591-6.123,2.577-8.864
						c-0.013-2.491-0.792-4.299-2.191-5.087C170.9,386.79,170.3,386.641,169.638,386.641z"/>
				</g>
			</g>
			<g>
				<path style="fill:#FFFFFF;" d="M342.725,408.417c-3.711,2.117-9.732-1.45-13.445-7.964c-3.709-6.512-3.709-13.509,0.007-15.626
					c3.716-2.117,9.736,1.447,13.452,7.959C346.446,399.306,346.446,406.301,342.725,408.417z"/>
				<path style="fill:#010101;" d="M340.318,410.257c-4.106,0-8.972-3.695-12.107-9.195c-4.107-7.213-3.902-14.812,0.467-17.302
					c0.899-0.511,1.915-0.772,3.018-0.772c4.107,0,8.975,3.693,12.111,9.191c4.105,7.219,3.896,14.82-0.474,17.307
					C342.436,409.997,341.421,410.257,340.318,410.257z M331.696,385.446c-0.671,0-1.277,0.151-1.8,0.45
					c-3.067,1.746-2.859,8.134,0.453,13.949c2.669,4.683,6.769,7.954,9.97,7.954c0.671,0,1.276-0.151,1.798-0.449
					c3.068-1.746,2.862-8.137-0.445-13.956C339,388.715,334.898,385.446,331.696,385.446z"/>
			</g>
			<g>
				<g>
					<path style="fill:#010101;" d="M5.103,247.216c0,0,54.571,3.768,74.936,19.449c0,0,11.343-13.441,35.834-17.222
						c0,0-19.318-3.125-35.329-19.205C80.544,230.239,70.419,241.705,5.103,247.216z"/>
					<path style="fill:#010101;" d="M80.221,268.356l-0.932-0.718c-19.84-15.277-73.729-19.159-74.271-19.196L5,245.992
						c63.471-5.356,74.53-16.468,74.635-16.58l0.87-0.93l0.911,0.891c15.548,15.616,34.464,18.828,34.654,18.858l7.674,1.242
						l-7.684,1.186c-23.762,3.667-34.971,16.668-35.082,16.799L80.221,268.356z M17.795,247.237
						c17.125,2.061,47.211,7.058,62.089,17.78c2.717-2.808,12.426-11.663,30.228-15.725c-6.832-2.055-18.814-6.875-29.627-17.385
						C77.047,234.51,63.266,242.348,17.795,247.237z"/>
				</g>
				<g>
					<path style="fill:#FFFFFF;" d="M93.57,248.821c-0.151,4.678-7.024,8.255-15.354,7.986c-8.322-0.269-14.955-4.282-14.801-8.96
						c0.15-4.683,7.022-8.26,15.349-7.993C87.094,240.125,93.725,244.136,93.57,248.821z"/>
					<path style="fill:#010101;" d="M79.095,258.05c-0.304,0-0.61-0.004-0.918-0.016c-4.233-0.135-8.203-1.202-11.177-3.002
						c-3.194-1.934-4.903-4.5-4.813-7.226c0.173-5.422,7.435-9.502,16.616-9.18c4.238,0.137,8.209,1.205,11.183,3.005
						c3.194,1.934,4.903,4.502,4.812,7.231C94.628,254.1,87.878,258.05,79.095,258.05z M77.892,241.069
						c-7.185,0-13.128,3.059-13.25,6.818c-0.059,1.799,1.23,3.589,3.631,5.043c2.619,1.585,6.165,2.526,9.983,2.65
						c7.566,0.234,13.959-2.896,14.086-6.798c0.059-1.802-1.23-3.596-3.629-5.048c-2.619-1.585-6.166-2.527-9.989-2.652
						C78.444,241.073,78.168,241.069,77.892,241.069z"/>
				</g>
			</g>
			<g>
				<g>
					<path style="fill:#010101;" d="M250.411,494.871c0,0,2.587-54.635,17.829-75.33c0,0-13.686-11.051-17.992-35.452
						c0,0-2.705,19.38-18.436,35.73C231.811,419.819,243.492,429.693,250.411,494.871z"/>
					<path style="fill:#010101;" d="M249.188,495c-6.723-63.336-18.07-74.153-18.184-74.254l-0.95-0.849l0.87-0.93
						c15.278-15.879,18.079-34.858,18.105-35.049l1.075-7.704l1.352,7.661c4.167,23.61,17.422,34.602,17.555,34.71l0.911,0.739
						l-0.694,0.945c-14.85,20.162-17.566,74.117-17.591,74.659L249.188,495z M233.481,419.843
						c2.675,3.381,10.81,16.994,16.677,62.335c1.69-17.164,6.038-47.344,16.437-62.448c-2.866-2.656-11.929-12.173-16.375-29.876
						C248.315,396.727,243.754,408.809,233.481,419.843z"/>
				</g>
				<g>
					<path style="fill:#FFFFFF;" d="M250.105,406.401c4.679,0.048,8.404,6.841,8.318,15.174c-0.091,8.324-3.961,15.042-8.642,14.99
						c-4.681-0.05-8.412-6.843-8.32-15.172C241.553,413.06,245.417,406.344,250.105,406.401z"/>
					<path style="fill:#010101;" d="M249.837,437.794h-0.07c-2.727-0.03-5.217-1.847-7.013-5.12
						c-1.672-3.048-2.568-7.061-2.521-11.294c0.1-9.089,4.41-16.208,9.813-16.208c2.799,0.028,5.29,1.846,7.084,5.119
						c1.671,3.048,2.567,7.061,2.523,11.298C259.553,430.676,255.242,437.794,249.837,437.794z M250.092,407.63
						c-3.952,0-7.32,6.309-7.402,13.776c-0.042,3.82,0.747,7.401,2.219,10.086c1.349,2.459,3.083,3.825,4.885,3.844l0.042,1.229
						v-1.229c3.907,0,7.276-6.308,7.357-13.774c0.04-3.822-0.749-7.406-2.221-10.09C253.626,409.013,251.892,407.648,250.092,407.63
						z"/>
				</g>
			</g>
			<g>
				<g>
					<path style="fill:#010101;" d="M494.89,251.486c0,0-54.593-3.476-75.036-19.046c0,0-11.273,13.499-35.744,17.411
						c0,0,19.333,3.02,35.429,19.013C419.54,268.864,429.605,257.347,494.89,251.486z"/>
					<path style="fill:#010101;" d="M419.603,270.659l-0.93-0.924c-15.632-15.532-34.563-18.64-34.752-18.669l-7.684-1.2
						l7.679-1.228c23.743-3.796,34.886-16.854,34.995-16.985l0.753-0.902l0.934,0.711c19.913,15.166,73.827,18.763,74.37,18.798
						L495,252.71c-64.053,5.751-74.438,16.851-74.535,16.962L419.603,270.659z M389.874,249.971
						c6.841,2.018,18.849,6.772,29.716,17.225c3.426-2.62,17.165-10.531,62.607-15.663c-17.135-1.97-47.247-6.805-62.18-17.446
						C417.314,236.909,407.648,245.813,389.874,249.971z"/>
				</g>
				<g>
					<path style="fill:#FFFFFF;" d="M406.416,250.353c0.127-4.678,6.978-8.291,15.311-8.067c8.325,0.223,14.979,4.203,14.85,8.881
						c-0.125,4.686-6.979,8.3-15.306,8.077C412.936,259.016,406.286,255.041,406.416,250.353z"/>
					<path style="fill:#010101;" d="M422,260.482l-0.762-0.01c-4.241-0.116-8.218-1.163-11.2-2.947
						c-3.203-1.917-4.927-4.476-4.852-7.206c0.144-5.287,6.94-9.272,15.809-9.272l0.763,0.01c4.234,0.114,8.21,1.159,11.193,2.944
						c3.205,1.917,4.929,4.474,4.853,7.2C437.664,256.492,430.869,260.482,422,260.482z M420.996,243.505
						c-7.259,0-13.248,3.087-13.351,6.881c-0.05,1.804,1.248,3.59,3.655,5.03c2.626,1.571,6.179,2.494,10.004,2.599l0.696,0.009
						c7.259,0,13.246-3.09,13.347-6.89c0.051-1.8-1.248-3.584-3.656-5.024c-2.628-1.572-6.179-2.494-9.997-2.596L420.996,243.505z"
						/>
				</g>
			</g>
			<g>
				<path style="fill:#010101;" d="M204.826,70.993c0,0,0.447,9.754-3.171,15.465c0,0,6.272,2.659,10.323,11.183
					c0,0-0.9-7.395,3.429-15.006C215.407,82.634,208.226,78.107,204.826,70.993z"/>
				<path style="fill:#010101;" d="M214.111,104.992l-3.243-6.823c-3.779-7.954-9.638-10.555-9.697-10.582l-1.321-0.57l0.767-1.217
					c3.372-5.321,2.986-14.657,2.981-14.751l-0.277-6.055l2.614,5.468c3.209,6.717,10.06,11.089,10.128,11.132l0.994,0.626
					l-0.581,1.021c-4.081,7.175-3.287,14.181-3.278,14.25L214.111,104.992z M203.351,85.962c1.65,0.97,4.699,3.143,7.459,7.178
					c0.279-2.719,1.047-6.349,2.989-10.117c-1.642-1.176-5.075-3.888-7.844-7.748C205.725,78.382,205.08,82.59,203.351,85.962z"/>
			</g>
			<g>
				<path style="fill:#010101;" d="M121.662,117.5c0,0,5.09,8.332,4.671,15.079c0,0,6.779-0.689,14.436,4.829
					c0,0-4.354-6.048-4.224-14.805C136.545,122.604,128.069,122.097,121.662,117.5z"/>
				<path style="fill:#010101;" d="M146.181,142.823l-6.131-4.417c-5.791-4.174-10.987-4.625-12.952-4.625
					c-0.389,0-0.614,0.019-0.645,0.021l-1.432,0.136l0.085-1.434c0.39-6.275-4.444-14.283-4.494-14.363l-3.149-5.164l4.915,3.526
					c6.048,4.34,14.158,4.87,14.24,4.875l1.173,0.07l-0.017,1.175c-0.123,8.254,3.951,14.012,3.992,14.069L146.181,142.823z
					 M127.581,131.33c1.931,0.059,5.649,0.503,9.998,2.698c-1.067-2.517-2.144-6.069-2.255-10.308
					c-2.007-0.24-6.322-0.962-10.609-3.01C126.009,123.543,127.472,127.542,127.581,131.33z"/>
			</g>
			<g>
				<path style="fill:#010101;" d="M300,72.697c0,0-5.007,8.381-11.177,11.146c0,0,3.764,5.684,2.444,15.023
					c0,0,3.325-6.666,11.138-10.626C302.406,88.241,298.911,80.508,300,72.697z"/>
				<path style="fill:#010101;" d="M289.005,106.101l1.045-7.405c1.233-8.715-2.218-14.124-2.254-14.176l-0.786-1.205l1.311-0.592
					c5.737-2.572,10.577-10.576,10.625-10.656l3.109-5.193l-0.836,5.992c-1.029,7.374,2.274,14.795,2.308,14.869l0.483,1.072
					l-1.048,0.53c-7.33,3.716-10.563,10.018-10.595,10.081L289.005,106.101z M290.511,84.366c0.841,1.72,2.186,5.216,2.264,10.103
					c1.732-2.115,4.375-4.719,8.074-6.791c-0.721-1.886-2.088-6.04-2.27-10.787C296.673,79.355,293.814,82.509,290.511,84.366z"/>
			</g>
			<g>
				<path style="fill:#010101;" d="M379.175,118.706c0,0-7.996,5.607-14.756,5.614c0,0,1.116,6.718-3.91,14.708
					c0,0,5.764-4.726,14.509-5.151C375.017,133.877,374.988,125.39,379.175,118.706z"/>
				<path style="fill:#010101;" d="M355.444,144.77l4.023-6.396c4.724-7.509,3.75-13.791,3.739-13.853l-0.238-1.43l1.449-0.001
					c6.3-0.007,13.975-5.338,14.051-5.391l4.968-3.484l-3.22,5.141c-3.952,6.312-3.97,14.436-3.97,14.517l0.003,1.174l-1.172,0.058
					c-8.245,0.401-13.735,4.829-13.79,4.874L355.444,144.77z M365.746,125.485c0.066,1.913-0.136,5.651-2.063,10.145
					c2.446-1.223,5.922-2.521,10.144-2.901c0.113-2.018,0.562-6.367,2.337-10.773C373.417,123.427,369.52,125.138,365.746,125.485z"
					/>
			</g>
			<g>
				<path style="fill:#010101;" d="M71.152,198.44c0,0,8.244,5.232,10.845,11.476c0,0,5.779-3.61,15.084-2.033
					c0,0-6.574-3.509-10.321-11.423C86.761,196.459,78.933,199.741,71.152,198.44z"/>
				<path style="fill:#010101;" d="M81.419,211.714l-0.557-1.326c-2.425-5.818-10.29-10.861-10.369-10.91l-5.119-3.25l5.981,1
					c1.144,0.19,2.364,0.288,3.627,0.288c5.987,0,11.251-2.167,11.304-2.19l1.083-0.451l0.503,1.06
					c3.532,7.46,9.726,10.831,9.788,10.865l6.667,3.559l-7.45-1.263c-1.493-0.253-2.99-0.382-4.446-0.382
					c-6.065,0-9.75,2.225-9.786,2.247L81.419,211.714z M75.305,199.973c2.413,1.972,5.49,4.917,7.259,8.271
					c1.743-0.792,5.307-2.01,10.164-1.987c-2.068-1.79-4.601-4.503-6.573-8.257C84.252,198.667,80.062,199.917,75.305,199.973z"/>
			</g>
			<g>
				<path style="fill:#010101;" d="M97.835,289.304c0,0-9.738,0.732-15.552-2.719c0,0-2.479,6.346-10.88,10.64
					c0,0,7.368-1.116,15.105,2.993C86.509,300.218,90.821,292.91,97.835,289.304z"/>
				<path style="fill:#010101;" d="M86.97,301.855l-1.037-0.552c-4.895-2.6-9.679-2.987-12.095-2.987
					c-1.392,0-2.243,0.124-2.251,0.125l-7.402,1.095l6.66-3.405c7.839-4.006,10.273-9.937,10.296-9.997l0.533-1.336l1.239,0.73
					c5.426,3.222,14.754,2.554,14.833,2.551l6.036-0.449l-5.383,2.768c-6.622,3.403-10.79,10.375-10.83,10.444L86.97,301.855z
					 M75.865,295.932c2.837,0.204,6.447,0.886,10.208,2.689c1.128-1.677,3.74-5.187,7.52-8.068
					c-3.115-0.141-7.35-0.663-10.764-2.288C81.907,289.943,79.821,293.055,75.865,295.932z"/>
			</g>
			<g>
				<g>
					<path style="fill:#010101;" d="M401.204,210.273c0,0,9.756-0.465,15.477,3.14c0,0,2.645-6.276,11.162-10.348
						c0,0-7.394,0.917-15.018-3.398C412.825,199.667,408.317,206.86,401.204,210.273z"/>
					<path style="fill:#010101;" d="M417.245,215.215l-1.22-0.763c-4.253-2.68-11.002-2.969-13.707-2.969
						c-0.653,0-1.041,0.017-1.057,0.018l-6.047,0.283l5.458-2.619c6.694-3.213,11.069-10.083,11.112-10.152l0.624-0.994l1.021,0.577
						c7.121,4.031,14.129,3.26,14.264,3.249l7.418-0.894l-6.739,3.223c-7.947,3.798-10.537,9.661-10.563,9.72L417.245,215.215z
						 M405.479,209.14c3.125,0.227,7.336,0.864,10.7,2.578c0.968-1.653,3.138-4.71,7.173-7.482
						c-2.717-0.273-6.364-1.031-10.134-2.962C412.045,202.92,409.34,206.362,405.479,209.14z"/>
				</g>
			</g>
			<g>
				<path style="fill:#010101;" d="M137.798,360.604c0,0-7.863,5.789-14.624,5.958c0,0,1.276,6.692-3.563,14.795
					c0,0,5.65-4.858,14.386-5.487C133.998,375.87,133.768,367.385,137.798,360.604z"/>
				<path style="fill:#010101;" d="M114.681,387.218l3.875-6.491c4.514-7.561,3.421-13.876,3.41-13.938l-0.26-1.416l1.438-0.04
					c6.287-0.156,13.85-5.663,13.926-5.719l4.876-3.585l-3.092,5.203c-3.805,6.401-3.629,14.523-3.627,14.604l0.031,1.175
					l-1.171,0.084c-8.237,0.593-13.621,5.147-13.673,5.193L114.681,387.218z M124.529,367.696c0.11,1.911-0.002,5.653-1.823,10.189
					c2.416-1.28,5.861-2.657,10.074-3.136c0.066-2.02,0.412-6.38,2.084-10.826C132.152,365.457,128.294,367.259,124.529,367.696z"/>
			</g>
			<g>
				<path style="fill:#010101;" d="M208.561,401.692c0,0-4.23,8.8-10.125,12.117c0,0,4.264,5.314,3.79,14.738
					c0,0,2.712-6.939,10.136-11.589C212.362,416.958,208.182,409.57,208.561,401.692z"/>
				<path style="fill:#010101;" d="M200.624,435.951l0.375-7.466c0.443-8.793-3.483-13.86-3.523-13.911l-0.893-1.128l1.251-0.708
					c5.494-3.092,9.578-11.494,9.619-11.579l2.627-5.464l-0.292,6.056c-0.357,7.415,3.604,14.531,3.644,14.602l0.576,1.022
					L213.015,418c-6.965,4.361-9.619,10.931-9.646,10.996L200.624,435.951z M200.165,414.175c0.994,1.637,2.648,4.995,3.167,9.855
					c1.535-2.262,3.932-5.095,7.43-7.493c-0.89-1.813-2.627-5.828-3.236-10.54C205.85,408.625,203.287,412.024,200.165,414.175z"/>
			</g>
			<g>
				<path style="fill:#010101;" d="M290.552,401.827c0,0,0.446,9.754-3.174,15.467c0,0,6.275,2.659,10.327,11.183
					c0,0-0.902-7.395,3.428-15.009C301.134,413.468,293.951,408.946,290.552,401.827z"/>
				<path style="fill:#010101;" d="M299.842,435.833l-3.247-6.828c-3.781-7.954-9.642-10.555-9.7-10.581l-1.322-0.571l0.767-1.217
					c3.367-5.313,2.989-14.66,2.984-14.754l-0.271-6.047l2.608,5.463c3.208,6.721,10.058,11.087,10.128,11.13l0.994,0.626
					l-0.581,1.021c-4.082,7.178-3.285,14.183-3.276,14.252L299.842,435.833z M289.075,416.798c1.65,0.97,4.701,3.143,7.463,7.177
					c0.277-2.718,1.045-6.349,2.988-10.117c-1.644-1.176-5.075-3.886-7.845-7.747C291.45,409.217,290.805,413.426,289.075,416.798z"
					/>
			</g>
			<g>
				<path style="fill:#010101;" d="M358.785,362.196c0,0,5.953,7.741,6.256,14.495c0,0,6.668-1.411,14.869,3.26
					c0,0-4.974-5.55-5.78-14.27C374.129,365.681,365.65,366.084,358.785,362.196z"/>
				<path style="fill:#010101;" d="M385.871,384.761l-6.57-3.742c-4.787-2.727-9.002-3.299-11.697-3.299
					c-1.445,0-2.304,0.173-2.313,0.174l-1.41,0.289l-0.068-1.437c-0.282-6.294-5.945-13.727-6.002-13.801l-3.697-4.807l5.277,2.988
					c5.467,3.096,12.127,3.337,14.039,3.337c0.398,0,0.626-0.009,0.642-0.011l1.172-0.054l0.109,1.169
					c0.76,8.22,5.424,13.51,5.472,13.563L385.871,384.761z M367.604,375.262c2.176,0,5.239,0.333,8.771,1.666
					c-1.329-2.39-2.777-5.806-3.342-10.008c-2.205-0.029-6.487-0.312-10.868-1.856c1.59,2.68,3.471,6.499,3.982,10.252
					C366.554,375.284,367.043,375.262,367.604,375.262z"/>
			</g>
			<g>
				<path style="fill:#010101;" d="M400.792,292.375c0,0,8.51,4.784,11.441,10.878c0,0,5.579-3.91,14.953-2.833
					c0,0-6.75-3.151-10.917-10.859C416.268,289.561,408.629,293.26,400.792,292.375z"/>
				<path style="fill:#010101;" d="M411.751,305.079l-0.626-1.294c-2.732-5.68-10.854-10.293-10.936-10.339l-5.29-2.974l6.03,0.681
					c7.41,0.839,14.738-2.666,14.803-2.698l1.057-0.51l0.56,1.032c3.928,7.266,10.292,10.3,10.356,10.33l6.85,3.198l-7.51-0.864
					c-1.039-0.119-2.08-0.18-3.096-0.18c-6.883,0-10.974,2.772-11.015,2.8L411.751,305.079z M405.021,293.684
					c2.515,1.84,5.743,4.615,7.689,7.869c1.697-0.884,5.156-2.317,10.04-2.524c-2.159-1.676-4.833-4.252-7.003-7.896
					C413.88,291.901,409.765,293.376,405.021,293.684z"/>
			</g>
		</g>
	</g>
	<g>
		<g>
			<path style="fill:#010101;" d="M244.564,260.647c3.946,6.644,5.517,15.29,5.517,15.29s2.22-9.323,5.766-15.789
				c4.258-7.772,11.782-10.028,11.782-10.028s-4.071-2.228-9.108-7.268c-4.763-4.762-5.555-15.981-5.555-15.981
				c-0.794-4.066,4.191-13.811,7.812-16.948c3.759-3.257,10.778-5.264,10.778-5.264s-7.521-1.253-11.028,1.253
				c-4.443,3.173-9.948,8.854-9.948,8.854l-0.082-20.885c0,0,4.134-14.92,12.116-11.36c6.935,3.089,2.424,10.107,2.424,10.107
				s6.306-5.055,4.429-10.441c-2.506-7.186-16.88-4.512-16.88-4.512s5.056-5.113,3.553-11.377c-0.929-3.874-5.56-6.668-5.56-6.668
				v-14.704c1.882-5.232,10.862-4.176,10.862-4.176s-3.718-4.414-6.474-10.557c-1.704-3.79-4.763-12.448-4.763-12.448
				s-1.292,3.524-4.763,11.322c-3.591,8.079-7.729,11.514-7.729,11.514s9.693-1.171,11.532,5.348l-0.332,13.365
				c1.532-1.2-4.136,3.243-5.307,7.253c-1.755,6.015,3.008,11.529,3.008,11.529s-9.603-3.358-15.08,1.937
				c-5.015,4.849-0.84,10.777,4.676,14.121c0,0-5.799-9.913,2.338-11.447c8.44-1.586,11.047,11.557,10.447,11.195l-0.168,20.635
				c0,0-5.118-5.446-8.605-7.602c-5.267-3.259-11.784-2.506-11.784-2.506s8.029,2.617,11.618,7.268
				c5.634,7.316,6.515,15.136,6.515,15.136s0.626,9.875-4.513,16.039c-2.503,3.01-10.087,7.081-10.087,7.081
				S239.806,252.628,244.564,260.647z"/>
			<path style="fill:#010101;" d="M249.919,281.915l-1.048-5.758c-0.016-0.084-1.582-8.514-5.364-14.881
				c-4.457-7.511-11.865-10.156-11.939-10.181l-2.643-0.919l2.464-1.325c0.073-0.04,7.402-3.993,9.723-6.784
				c4.757-5.706,4.237-15.082,4.231-15.176c-0.003-0.013-0.92-7.527-6.262-14.463c-3.319-4.301-10.949-6.825-11.026-6.849
				l-5.314-1.731l5.554-0.658c0,0,0.706-0.084,1.851-0.084c2.336,0,6.834,0.36,10.722,2.765c2.181,1.348,4.906,3.859,6.754,5.673
				l0.151-18.486c-0.294-1.542-1.447-5.129-3.616-7.343c-1.557-1.588-3.307-2.212-5.382-1.82c-1.561,0.294-2.545,0.93-3.008,1.943
				c-1.069,2.341,0.724,6.335,1.504,7.677l2.43,4.17l-4.128-2.5c-4.298-2.605-7.091-6.178-7.47-9.557
				c-0.266-2.364,0.625-4.612,2.577-6.499c2.288-2.212,5.427-3.333,9.329-3.333c1.417,0,2.741,0.152,3.849,0.343
				c-1.281-2.372-2.572-6.024-1.431-9.937c0.778-2.663,3.198-5.422,5.271-7.404l0.314-12.706c-1.2-3.793-5.88-4.365-8.59-4.365
				c-0.917,0-1.529,0.068-1.562,0.073l-4.089,0.483l3.156-2.647c0.04-0.034,3.983-3.396,7.394-11.07
				c3.409-7.657,4.719-11.21,4.732-11.247l1.175-3.205l1.138,3.219c0.03,0.086,3.061,8.653,4.724,12.353
				c2.648,5.901,6.257,10.227,6.294,10.27l1.989,2.366l-3.073-0.354c-0.105-0.015-7.813-0.816-9.491,3.185v13.813
				c1.375,0.953,4.692,3.564,5.526,7.042c0.999,4.164-0.564,7.811-1.995,10.081c0.896-0.076,1.942-0.133,3.059-0.133
				c6.672,0,10.9,2.014,12.229,5.824c2.139,6.136-4.536,11.575-4.82,11.805l-5.776,4.629l3.971-6.249
				c0.018-0.029,1.817-2.902,1.067-5.389c-0.379-1.258-1.347-2.218-2.956-2.936c-0.658-0.293-1.305-0.442-1.921-0.442
				c-4.392,0-7.549,7.679-8.464,10.848l0.068,17.773c2.033-1.968,5.207-4.904,8.017-6.911c1.667-1.192,4.205-1.795,7.543-1.795
				c2.392,0,4.32,0.317,4.4,0.33l5.37,0.894l-5.233,1.499c-0.068,0.021-6.807,1.974-10.312,5.012
				c-3.411,2.955-8.101,12.25-7.411,15.784c0.028,0.256,0.839,10.968,5.218,15.347c4.832,4.837,8.791,7.038,8.829,7.06l2.554,1.404
				l-2.79,0.85c-0.071,0.021-7.109,2.234-11.059,9.442c-3.427,6.249-5.627,15.392-5.648,15.483L249.919,281.915z M234.692,249.804
				c2.811,1.45,7.575,4.563,10.93,10.217c2.182,3.674,3.647,7.886,4.541,11.023c1.014-3.311,2.594-7.814,4.606-11.486
				c3.001-5.478,7.495-8.351,10.202-9.671c-1.717-1.182-4.351-3.195-7.319-6.166c-5.029-5.029-5.878-16.287-5.912-16.764
				c-0.91-4.607,4.541-14.764,8.231-17.964c1.54-1.333,3.559-2.458,5.461-3.336c-1.838,0.169-3.267,0.594-4.191,1.254
				c-4.299,3.071-9.725,8.654-9.78,8.71l-1.426,1.473l-0.005,0.498l-0.235-0.251l-0.433,0.447l-0.004-0.912l-1.427-1.519
				c-0.051-0.053-5.048-5.354-8.356-7.397c-1.389-0.859-2.879-1.417-4.299-1.776c2.096,1.22,4.261,2.808,5.753,4.743
				c5.777,7.502,6.725,15.416,6.764,15.748c0.031,0.484,0.6,10.498-4.791,16.964C241.221,245.779,237.197,248.331,234.692,249.804z
				 M239.935,181.325c6.039,0,9.059,6.585,10.021,10.277c1.317-3.596,4.667-10.857,10.237-10.857c0.964,0,1.947,0.219,2.922,0.655
				c2.275,1.013,3.727,2.522,4.313,4.486c0.16,0.538,0.244,1.077,0.27,1.607c0.771-1.474,1.205-3.19,0.609-4.9
				c-1.203-3.451-6.052-4.175-9.908-4.175c-3.035,0-5.562,0.462-5.587,0.467l-3.341,0.618l1.069,1.237l-4.33-1.502
				c-0.029-0.01-2.866-0.982-6.202-0.982c-3.243,0-5.806,0.889-7.619,2.642c-1.403,1.356-2.024,2.856-1.844,4.457
				c0.183,1.626,1.205,3.401,2.832,5.036c-0.46-1.789-0.634-3.841,0.153-5.568c0.807-1.77,2.419-2.895,4.791-3.341
				C238.881,181.374,239.418,181.325,239.935,181.325z M249.54,160.437c-2.559,2.42-4.243,4.703-4.754,6.456
				c-1.55,5.312,2.715,10.331,2.758,10.381l1.74,2.015l2.426-2.475c0.045-0.047,4.554-4.725,3.233-10.229
				c-0.796-3.318-4.958-5.878-5-5.904L249.54,160.437z M240.636,139.305c4.334,0.25,7.515,1.859,9.063,4.551
				c1.732-3.544,6.202-4.316,9.203-4.412c-1.369-1.913-3.376-5.006-5.055-8.748c-1.073-2.384-2.645-6.591-3.695-9.471
				c-0.764,1.861-1.924,4.61-3.585,8.342C244.49,134.239,242.233,137.408,240.636,139.305z"/>
		</g>
		<g>
			<path style="fill:#FFFFFF;" d="M254.512,249.707c0,5.626-2.019,10.189-4.513,10.189c-2.492,0-4.513-4.563-4.513-10.189
				c0-5.631,2.021-10.194,4.513-10.194C252.493,239.513,254.512,244.076,254.512,249.707z"/>
			<path style="fill:#FFFFFF;" d="M249.999,261.125c-3.273,0-5.742-4.909-5.742-11.418c0-6.512,2.469-11.423,5.742-11.423
				c3.273,0,5.742,4.911,5.742,11.423C255.741,256.217,253.272,261.125,249.999,261.125z M249.999,240.742
				c-1.34,0-3.284,3.492-3.284,8.965c0,5.47,1.944,8.96,3.284,8.96c1.339,0,3.284-3.49,3.284-8.96
				C253.283,244.234,251.338,240.742,249.999,240.742z"/>
		</g>
		<g>
			<path style="fill:#FFFFFF;" d="M253.172,168.667c0,3.137-1.493,5.682-3.342,5.682c-1.846,0-3.341-2.544-3.341-5.682
				s1.496-5.682,3.341-5.682C251.679,162.985,253.172,165.53,253.172,168.667z"/>
			<path style="fill:#FFFFFF;" d="M249.831,175.577c-2.563,0-4.57-3.035-4.57-6.91s2.008-6.91,4.57-6.91
				c2.563,0,4.571,3.035,4.571,6.91S252.394,175.577,249.831,175.577z M249.831,164.214c-0.977,0-2.112,1.945-2.112,4.453
				s1.135,4.453,2.112,4.453s2.113-1.945,2.113-4.453S250.808,164.214,249.831,164.214z"/>
		</g>
	</g>
</g>
</svg>
