<?xml version="1.0" encoding="iso-8859-1"?>
<!-- Generator: Adobe Illustrator 16.0.0, SVG Export Plug-In . SVG Version: 6.00 Build 0)  -->
<!DOCTYPE svg PUBLIC "-//W3C//DTD SVG 1.1//EN" "http://www.w3.org/Graphics/SVG/1.1/DTD/svg11.dtd">
<svg version="1.1" id="Layer_1" xmlns="http://www.w3.org/2000/svg" xmlns:xlink="http://www.w3.org/1999/xlink" x="0px" y="0px"
	 width="500px" height="500px" viewBox="0 0 500 500" style="enable-background:new 0 0 500 500;" xml:space="preserve">
<g>
	<path style="fill:#010101;" d="M249.328,422.579c-94.847,0-172.012-77.155-172.012-171.993
		c0-94.841,77.165-171.999,172.012-171.999c94.846,0,172.009,77.158,172.009,171.999
		C421.337,345.424,344.174,422.579,249.328,422.579z M249.328,81.045c-93.492,0-169.554,76.057-169.554,169.541
		c0,93.482,76.062,169.535,169.554,169.535c93.491,0,169.551-76.053,169.551-169.535C418.879,157.102,342.819,81.045,249.328,81.045
		z"/>
	<g>
		<g>
			<g>
				<path style="fill:#010101;" d="M134.655,317.75c0,0-24.477,7.597-41.185,2.405c0,0-2.917,17.345-22.072,33.071
					c0,0,18.218-7.15,40.183-1.464C111.581,351.762,118.673,330.925,134.655,317.75z"/>
				<path style="fill:#010101;" d="M64.633,357.191l5.986-4.914c18.534-15.218,21.611-32.158,21.639-32.327l0.237-1.384l1.34,0.416
					c3.758,1.167,8.259,1.759,13.379,1.759c13.5,0,26.942-4.123,27.075-4.165l5.967-1.852l-4.82,3.974
					c-15.533,12.805-22.621,33.254-22.692,33.459l-0.367,1.079l-1.104-0.286c-5.528-1.43-11.315-2.156-17.195-2.156
					c-12.937,0-22.139,3.541-22.23,3.575L64.633,357.191z M94.392,321.701c-0.996,4.033-4.939,16.387-17.972,28.735
					c4.095-1.006,10.249-2.1,17.657-2.1c5.705,0,11.326,0.66,16.726,1.963c1.532-4.062,7.571-18.641,19.229-30.042
					c-5.239,1.256-13.926,2.94-22.817,2.94C102.412,323.198,98.107,322.696,94.392,321.701z"/>
			</g>
			<g>
				<path style="fill:#FFFFFF;" d="M90.364,342.437c-2.056-3.747,1.603-9.705,8.176-13.314c6.572-3.607,13.57-3.495,15.623,0.254
					c2.061,3.749-1.599,9.711-8.17,13.321C99.417,346.301,92.421,346.191,90.364,342.437z"/>
				<path style="fill:#010101;" d="M96.699,346.557c-3.532,0-6.165-1.253-7.413-3.529c-2.417-4.406,1.387-10.987,8.662-14.982
					c3.272-1.796,6.782-2.785,9.885-2.785c3.531,0,6.163,1.252,7.407,3.526c1.217,2.216,0.906,5.038-0.879,7.946
					c-1.653,2.694-4.415,5.196-7.777,7.042C103.31,345.569,99.799,346.557,96.699,346.557z M107.833,327.718
					c-2.697,0-5.788,0.881-8.702,2.482c-5.866,3.221-9.387,8.554-7.69,11.645c1.612,2.943,8.273,2.892,13.96-0.224
					c2.993-1.644,5.432-3.837,6.866-6.174c1.302-2.123,1.592-4.068,0.818-5.479C112.303,328.538,110.388,327.718,107.833,327.718z"
					/>
			</g>
		</g>
		<g>
			<g>
				<path style="fill:#010101;" d="M72.485,143.445c0,0,18.222,18.021,21.5,35.204c0,0,16.678-5.587,39.566,3.915
					c0,0-14.879-12.709-20.195-34.768C113.356,147.796,91.632,151.347,72.485,143.445z"/>
				<path style="fill:#010101;" d="M140.236,186.67l-7.156-2.97c-8.715-3.618-17.507-5.454-26.132-5.454
					c-7.761,0-12.527,1.553-12.574,1.569l-1.332,0.443l-0.264-1.378c-3.17-16.617-20.979-34.384-21.157-34.561l-4.442-4.393
					l5.776,2.383c10.122,4.177,21.02,5.055,28.38,5.055c6.958,0,11.775-0.771,11.823-0.78l1.126-0.183l0.268,1.107
					c5.153,21.386,19.653,33.998,19.799,34.123L140.236,186.67z M106.948,175.789c7.194,0,14.492,1.226,21.76,3.651
					c-4.77-5.307-12.506-15.663-16.275-30.271c-1.851,0.236-5.852,0.652-11.098,0.652c-6.421,0-15.465-0.651-24.458-3.481
					c5.354,6.028,15.175,18.389,18.041,30.774C96.92,176.613,101.111,175.789,106.948,175.789z"/>
			</g>
			<g>
				<path style="fill:#FFFFFF;" d="M115.109,170.906c-2.337,3.577-9.32,3.154-15.598-0.95c-6.274-4.1-9.467-10.329-7.125-13.905
					c2.339-3.582,9.324-3.156,15.6,0.943C114.261,161.099,117.455,167.325,115.109,170.906z"/>
				<path style="fill:#010101;" d="M109.532,174.563c-3.316,0-7.215-1.305-10.693-3.579c-3.21-2.098-5.773-4.803-7.215-7.617
					c-1.557-3.037-1.652-5.875-0.266-7.989c1.258-1.926,3.607-2.987,6.61-2.987c3.315,0,7.211,1.303,10.69,3.575
					c3.212,2.101,5.774,4.807,7.216,7.621c1.557,3.038,1.65,5.876,0.264,7.993C114.881,173.503,112.535,174.563,109.532,174.563z
					 M97.968,154.849c-2.146,0-3.764,0.666-4.553,1.875c-0.881,1.346-0.739,3.307,0.397,5.524c1.25,2.44,3.513,4.811,6.371,6.68
					c3.091,2.02,6.497,3.177,9.349,3.177c2.145,0,3.76-0.665,4.549-1.871c0.882-1.348,0.742-3.31-0.395-5.528
					c-1.25-2.438-3.514-4.812-6.374-6.683C104.226,156.005,100.819,154.849,97.968,154.849z"/>
			</g>
		</g>
		<g>
			<g>
				<path style="fill:#010101;" d="M152.124,67.748c0,0,6.011,24.912-0.243,41.249c0,0,17.122,4.025,31.585,24.146
					c0,0-5.966-18.635,1.121-40.189C184.587,92.953,164.249,84.54,152.124,67.748z"/>
				<path style="fill:#010101;" d="M187.008,140.176l-4.541-6.315c-14.031-19.522-30.7-23.629-30.867-23.667l-1.369-0.322
					l0.502-1.314c6.042-15.784,0.255-40.275,0.196-40.521l-1.462-6.067l3.652,5.06c11.771,16.301,31.737,24.706,31.938,24.789
					l1.053,0.436l-0.355,1.084c-6.883,20.933-1.176,39.249-1.119,39.432L187.008,140.176z M153.483,108.176
					c3.96,1.252,16.027,5.98,27.508,19.761c-1.264-7.023-2.393-19.897,2.087-34.302c-3.956-1.789-18.111-8.749-28.743-21.105
					C155.717,80.475,157.561,96.142,153.483,108.176z"/>
			</g>
			<g>
				<path style="fill:#FFFFFF;" d="M173.919,113.526c-3.871,1.812-9.585-2.223-12.766-9.013c-3.177-6.786-2.614-13.766,1.259-15.576
					c3.875-1.812,9.589,2.223,12.77,9.011C178.356,104.741,177.797,111.713,173.919,113.526z"/>
				<path style="fill:#010101;" d="M171.912,115.188c-4.256,0-9.027-4.08-11.872-10.154c-1.626-3.472-2.381-7.12-2.126-10.273
					c0.275-3.402,1.688-5.866,3.978-6.937c0.779-0.363,1.63-0.548,2.529-0.548c4.257,0,9.03,4.079,11.874,10.152
					c3.517,7.523,2.702,15.083-1.854,17.212C173.661,115.003,172.811,115.188,171.912,115.188z M164.42,89.733
					c-0.537,0-1.037,0.106-1.488,0.318c-1.456,0.679-2.368,2.423-2.569,4.907c-0.221,2.733,0.455,5.942,1.902,9.034
					c2.767,5.905,7.98,9.888,11.132,8.421c3.197-1.496,3.505-7.88,0.67-13.944C171.696,93.407,167.639,89.733,164.42,89.733z"/>
			</g>
		</g>
		<g>
			<g>
				<path style="fill:#010101;" d="M353.227,71.291c0,0-16.873,19.291-33.826,23.619c0,0,6.599,16.303-1.483,39.725
					c0,0,11.772-15.626,33.468-22.284C351.386,112.35,346.513,90.886,353.227,71.291z"/>
				<path style="fill:#010101;" d="M314.219,141.587l2.537-7.354c7.841-22.723,1.57-38.704,1.506-38.862l-0.528-1.304l1.364-0.348
					c16.379-4.181,33.038-23.048,33.204-23.237l4.111-4.697l-2.022,5.904c-6.526,19.045-1.854,40.177-1.806,40.388l0.252,1.112
					l-1.091,0.335c-21.071,6.466-32.731,21.696-32.846,21.848L314.219,141.587z M320.997,95.743
					c1.264,3.956,4.371,16.537-0.255,33.864c5.005-5.086,14.865-13.438,29.218-18.096c-0.825-4.263-3.313-19.839,0.641-35.655
					C344.909,81.572,333.18,92.124,320.997,95.743z"/>
			</g>
			<g>
				<path style="fill:#FFFFFF;" d="M328.425,115.518c-3.714-2.117-3.718-9.111-0.007-15.625c3.707-6.514,9.729-10.083,13.443-7.964
					c3.721,2.113,3.724,9.111,0.015,15.626C338.162,114.068,332.144,117.635,328.425,115.518z"/>
				<path style="fill:#010101;" d="M330.834,117.357c-1.104,0-2.119-0.26-3.018-0.771c-4.37-2.491-4.574-10.091-0.466-17.302
					c3.13-5.5,7.993-9.196,12.103-9.196c1.103,0,2.119,0.26,3.018,0.773c1.456,0.827,2.503,2.27,3.027,4.173
					c1.003,3.648,0.049,8.556-2.554,13.128C339.809,113.663,334.941,117.357,330.834,117.357z M339.453,92.546
					c-3.203,0-7.302,3.27-9.967,7.953c-3.312,5.814-3.52,12.203-0.453,13.95c0.523,0.298,1.129,0.45,1.801,0.45
					c3.202,0,7.303-3.272,9.973-7.955c2.253-3.958,3.143-8.271,2.321-11.258c-0.352-1.279-0.983-2.185-1.875-2.691
					C340.729,92.697,340.124,92.546,339.453,92.546z"/>
			</g>
		</g>
		<g>
			<g>
				<path style="fill:#010101;" d="M429.701,148.601c0,0-24.725,6.738-41.241,0.965c0,0-3.524,17.231-23.218,32.276
					c0,0,18.458-6.509,40.214-0.057C405.456,181.785,413.267,161.209,429.701,148.601z"/>
				<path style="fill:#010101;" d="M358.339,185.568l6.156-4.703c19.107-14.596,22.726-31.378,22.761-31.546l0.282-1.378
					l1.327,0.464c4.307,1.506,9.616,2.27,15.781,2.27c12.625-0.001,24.611-3.228,24.732-3.26l6.028-1.643l-4.958,3.803
					c-15.954,12.24-23.768,32.443-23.844,32.646l-0.404,1.066l-1.094-0.324c-6.269-1.859-12.878-2.802-19.64-2.802
					c-11.595,0-19.736,2.811-19.816,2.84L358.339,185.568z M385.467,177.703c6.614,0,13.089,0.873,19.263,2.593
					c1.672-4.007,8.216-18.364,20.264-29.351c-4.769,0.967-12.362,2.187-20.347,2.188c-5.854,0-11-0.669-15.32-1.99
					c-1.135,3.996-5.51,16.204-18.968,28.088C373.988,178.473,379.215,177.703,385.467,177.703z"/>
			</g>
			<g>
				<path style="fill:#FFFFFF;" d="M384.506,171.583c-1.882-3.835,2.048-9.623,8.779-12.927c6.729-3.303,13.717-2.866,15.593,0.972
					c1.887,3.838-2.041,9.627-8.771,12.933C393.374,175.861,386.391,175.429,384.506,171.583z"/>
				<path style="fill:#010101;" d="M391.338,176.006c-3.833,0-6.726-1.415-7.936-3.881c-2.213-4.513,1.889-10.913,9.342-14.572
					c3.079-1.511,6.384-2.344,9.307-2.344c3.836,0,6.727,1.414,7.933,3.879c1.115,2.267,0.675,5.071-1.241,7.895
					c-1.775,2.617-4.648,4.989-8.093,6.68C397.566,175.174,394.26,176.006,391.338,176.006z M402.05,157.667
					c-2.555,0-5.475,0.743-8.224,2.092c-6.007,2.95-9.77,8.118-8.217,11.284c0.781,1.593,2.869,2.506,5.729,2.506
					c2.554,0,5.476-0.743,8.229-2.09c3.066-1.506,5.602-3.585,7.141-5.854c1.398-2.062,1.777-3.991,1.068-5.434
					C406.997,158.579,404.911,157.667,402.05,157.667z"/>
			</g>
		</g>
		<g>
			<g>
				<path style="fill:#010101;" d="M363.989,319.322c0,0,18.945,17.26,22.922,34.297c0,0,16.436-6.265,39.692,2.295
					c0,0-15.385-12.09-21.6-33.914C405.004,322.001,383.445,326.434,363.989,319.322z"/>
				<path style="fill:#010101;" d="M433.451,359.743l-7.271-2.675c-7.988-2.94-16.021-4.431-23.879-4.431
					c-9.211,0-14.896,2.111-14.951,2.131l-1.313,0.497l-0.32-1.366c-3.843-16.463-22.367-33.498-22.555-33.669l-4.613-4.207
					l5.863,2.144c7.205,2.634,15.522,3.969,24.721,3.969c8.985,0,15.56-1.326,15.625-1.339l1.116-0.229l0.313,1.097
					c6.025,21.156,21.027,33.165,21.177,33.284L433.451,359.743z M402.3,350.179c6.378,0,12.861,0.944,19.339,2.813
					c-4.983-5.107-13.137-15.139-17.502-29.584c-2.281,0.388-7.847,1.187-15.004,1.187c-7.465,0-14.381-0.857-20.631-2.554
					c5.599,5.808,15.911,17.751,19.278,30.006C390.041,351.381,395.125,350.179,402.3,350.179z"/>
			</g>
			<g>
				<path style="fill:#FFFFFF;" d="M408.205,344.518c-2.19,3.668-9.183,3.533-15.625-0.312c-6.436-3.84-9.88-9.932-7.686-13.6
					c2.192-3.674,9.184-3.538,15.625,0.303C406.954,334.753,410.401,340.841,408.205,344.518z"/>
				<path style="fill:#010101;" d="M402.238,348.411c-3.231,0-6.886-1.118-10.289-3.15c-4.517-2.694-7.765-6.494-8.69-10.162
					c-0.481-1.913-0.282-3.685,0.579-5.124c1.256-2.106,3.753-3.267,7.027-3.267c3.229,0,6.881,1.116,10.282,3.145
					c7.129,4.259,10.692,10.978,8.112,15.296C408.004,347.252,405.51,348.411,402.238,348.411z M390.865,329.166
					c-2.374,0-4.121,0.734-4.917,2.068c-0.526,0.881-0.628,1.978-0.305,3.264c0.757,3.003,3.656,6.319,7.566,8.652
					c2.984,1.782,6.274,2.803,9.029,2.803c2.372,0,4.117-0.733,4.911-2.065c1.81-3.03-1.516-8.491-7.261-11.925
					C396.906,330.186,393.618,329.166,390.865,329.166z"/>
			</g>
		</g>
		<g>
			<g>
				<path style="fill:#010101;" d="M250.497,5.132c0,0-2.506,54.637-17.716,75.356c0,0,13.705,11.027,18.05,35.423
					c0,0,2.677-19.382,18.38-35.759C269.211,80.152,257.516,70.297,250.497,5.132z"/>
				<path style="fill:#010101;" d="M250.984,123.783l-1.363-7.655c-4.205-23.605-17.479-34.575-17.612-34.683l-0.912-0.737
					l0.694-0.947c14.817-20.186,17.453-74.143,17.478-74.685L251.719,5c6.821,63.325,18.184,74.123,18.298,74.225l0.951,0.847
					l-0.869,0.932c-15.252,15.905-18.024,34.886-18.051,35.076L250.984,123.783z M234.424,80.295
					c2.872,2.651,11.951,12.154,16.424,29.852c1.895-6.875,6.438-18.965,16.693-30.016c-2.68-3.376-10.834-16.97-16.773-62.31
					C249.103,34.986,244.803,65.176,234.424,80.295z"/>
			</g>
			<g>
				<path style="fill:#FFFFFF;" d="M250.937,93.604c-4.682-0.043-8.414-6.831-8.342-15.165c0.077-8.326,3.937-15.05,8.62-15.001
					c4.683,0.041,8.418,6.831,8.347,15.16C259.48,86.928,255.625,93.646,250.937,93.604z"/>
				<path style="fill:#010101;" d="M250.98,94.833h-0.055c-5.439-0.051-9.639-7.256-9.56-16.405
					c0.084-9.096,4.388-16.22,9.799-16.22c5.503,0.048,9.706,7.251,9.626,16.4C260.701,87.706,256.393,94.833,250.98,94.833z
					 M251.204,64.666c-3.95,0-7.312,6.313-7.38,13.784c-0.064,7.512,3.198,13.889,7.124,13.925l0.034,1.229v-1.229
					c3.912,0,7.279-6.315,7.352-13.79C258.397,71.075,255.132,64.699,251.204,64.666z"/>
			</g>
		</g>
		<g>
			<g>
				<path style="fill:#010101;" d="M183.3,365.328c0,0-16.79,19.365-33.723,23.763c0,0,6.668,16.273-1.312,39.734
					c0,0,11.706-15.679,33.37-22.43C181.636,406.395,176.67,384.953,183.3,365.328z"/>
				<path style="fill:#010101;" d="M144.607,435.763l2.495-7.334c7.722-22.7,1.402-38.714,1.337-38.874l-0.529-1.3l1.359-0.354
					c16.361-4.249,32.937-23.188,33.103-23.379l4.091-4.715l-1.999,5.915c-6.444,19.073-1.68,40.184-1.631,40.396l0.257,1.111
					l-1.088,0.339c-21.003,6.545-32.637,21.839-32.752,21.993L144.607,435.763z M151.177,389.917
					c1.28,3.951,4.442,16.52-0.111,33.869c4.983-5.108,14.809-13.504,29.139-18.224c-0.843-4.259-3.399-19.824,0.487-35.656
					C175.024,375.646,163.342,386.248,151.177,389.917z"/>
			</g>
			<g>
				<path style="fill:#FFFFFF;" d="M158.69,409.661c-3.723-2.098-3.757-9.095-0.075-15.626c3.68-6.531,9.686-10.125,13.409-8.021
					c3.726,2.098,3.762,9.097,0.083,15.626C168.42,408.168,162.418,411.764,158.69,409.661z"/>
				<path style="fill:#010101;" d="M161.078,411.49c-1.092,0-2.098-0.254-2.991-0.758c-2.201-1.241-3.423-3.803-3.44-7.215
					c-0.015-3.161,1.015-6.742,2.897-10.084c3.118-5.532,7.978-9.248,12.094-9.248c1.092,0,2.098,0.255,2.991,0.759
					c2.201,1.24,3.424,3.803,3.442,7.215c0.017,3.162-1.011,6.744-2.894,10.085C170.054,407.774,165.192,411.49,161.078,411.49z
					 M169.638,386.641c-3.207,0-7.3,3.289-9.952,7.998c-1.677,2.975-2.594,6.125-2.581,8.865c0.012,2.492,0.79,4.298,2.189,5.086
					c0.52,0.293,1.12,0.442,1.784,0.442c3.205,0,7.299-3.289,9.958-7.997c1.675-2.974,2.591-6.123,2.577-8.864
					c-0.014-2.492-0.793-4.299-2.192-5.087C170.9,386.79,170.3,386.641,169.638,386.641z"/>
			</g>
		</g>
		<g>
			<g>
				<path style="fill:#010101;" d="M317.684,365.101c0,0,7.834,23.883,3.004,40.344c0,0,17.055,2.588,32.772,21.122
					c0,0-7.296-17.748-2.06-39.376C351.4,387.191,330.858,380.566,317.684,365.101z"/>
				<path style="fill:#010101;" d="M357.555,433.298l-5.032-5.936c-15.243-17.976-31.853-20.677-32.02-20.702l-1.391-0.21
					l0.396-1.351c4.668-15.912-2.916-39.38-2.993-39.615l-1.947-5.935l4.051,4.755c12.799,15.026,32.956,21.652,33.157,21.716
					l1.086,0.351l-0.268,1.109c-5.084,20.999,1.931,38.447,2.001,38.62L357.555,433.298z M322.219,404.499
					c3.991,0.921,16.104,4.592,28.367,17.091c-1.782-6.784-3.865-19.229-0.634-33.598c-4.03-1.447-18.346-7.122-29.685-18.313
					C322.24,377.362,325.239,392.457,322.219,404.499z"/>
			</g>
			<g>
				<path style="fill:#FFFFFF;" d="M342.725,408.418c-3.711,2.117-9.732-1.45-13.445-7.964c-3.709-6.512-3.709-13.509,0.007-15.625
					c3.716-2.117,9.736,1.447,13.452,7.959C346.446,399.307,346.446,406.301,342.725,408.418z"/>
				<path style="fill:#010101;" d="M340.319,410.257c-4.106,0-8.972-3.695-12.107-9.195c-4.107-7.212-3.902-14.812,0.467-17.302
					c0.899-0.511,1.914-0.771,3.017-0.771c4.107,0,8.975,3.693,12.11,9.19c4.105,7.219,3.896,14.82-0.474,17.307
					C342.436,409.997,341.421,410.257,340.319,410.257z M331.696,385.446c-0.671,0-1.277,0.151-1.8,0.45
					c-3.066,1.746-2.859,8.134,0.453,13.949c2.669,4.684,6.77,7.955,9.971,7.955c0.67,0,1.276-0.151,1.798-0.449
					c3.068-1.746,2.862-8.137-0.445-13.957C339.001,388.715,334.898,385.446,331.696,385.446z"/>
			</g>
		</g>
		<g>
			<g>
				<path style="fill:#010101;" d="M5.103,247.215c0,0,54.571,3.769,74.937,19.45c0,0,11.342-13.441,35.833-17.222
					c0,0-19.318-3.125-35.328-19.205C80.545,230.239,70.419,241.705,5.103,247.215z"/>
				<path style="fill:#010101;" d="M80.221,268.356l-0.932-0.718c-19.84-15.277-73.729-19.159-74.271-19.196L5,245.991
					c63.471-5.356,74.53-16.468,74.635-16.58l0.87-0.93l0.911,0.891c15.548,15.616,34.464,18.828,34.654,18.857l7.674,1.243
					l-7.685,1.186c-23.761,3.668-34.971,16.668-35.081,16.799L80.221,268.356z M17.794,247.237
					c17.125,2.061,47.212,7.059,62.09,17.78c2.717-2.808,12.426-11.663,30.227-15.725c-6.832-2.055-18.814-6.875-29.627-17.385
					C77.047,234.51,63.266,242.348,17.794,247.237z"/>
			</g>
			<g>
				<path style="fill:#FFFFFF;" d="M93.57,248.822c-0.151,4.678-7.024,8.254-15.354,7.986c-8.323-0.269-14.956-4.283-14.802-8.96
					c0.149-4.683,7.022-8.26,15.349-7.993C87.094,240.125,93.725,244.136,93.57,248.822z"/>
				<path style="fill:#010101;" d="M79.095,258.05c-0.304,0-0.61-0.004-0.918-0.016c-4.233-0.135-8.203-1.203-11.177-3.002
					c-3.194-1.934-4.903-4.499-4.813-7.226c0.173-5.422,7.419-9.517,16.617-9.18c4.238,0.137,8.208,1.205,11.183,3.006
					c3.193,1.933,4.902,4.501,4.812,7.23C94.628,254.1,87.878,258.05,79.095,258.05z M77.892,241.068
					c-7.185,0-13.128,3.06-13.25,6.818c-0.059,1.799,1.23,3.589,3.631,5.043c2.618,1.585,6.164,2.526,9.982,2.65
					c7.566,0.223,13.958-2.897,14.086-6.798c0.059-1.803-1.23-3.596-3.629-5.047c-2.619-1.586-6.166-2.528-9.989-2.653
					C78.444,241.073,78.168,241.068,77.892,241.068z"/>
			</g>
		</g>
		<g>
			<g>
				<path style="fill:#010101;" d="M250.411,494.871c0,0,2.587-54.635,17.829-75.331c0,0-13.686-11.051-17.992-35.451
					c0,0-2.706,19.379-18.437,35.73C231.811,419.819,243.492,429.694,250.411,494.871z"/>
				<path style="fill:#010101;" d="M249.188,495c-6.723-63.336-18.07-74.152-18.184-74.254l-0.949-0.849l0.871-0.93
					c15.278-15.879,18.078-34.857,18.104-35.049l1.076-7.704l1.351,7.661c4.167,23.61,17.422,34.602,17.555,34.71l0.911,0.739
					l-0.694,0.945c-14.85,20.162-17.566,74.117-17.591,74.659L249.188,495z M233.481,419.843
					c2.675,3.381,10.81,16.994,16.677,62.335c1.69-17.164,6.038-47.344,16.437-62.447c-2.866-2.656-11.929-12.173-16.375-29.876
					C248.314,396.727,243.754,408.809,233.481,419.843z"/>
			</g>
			<g>
				<path style="fill:#FFFFFF;" d="M250.106,406.401c4.678,0.048,8.404,6.841,8.317,15.174c-0.091,8.324-3.96,15.043-8.642,14.99
					c-4.681-0.05-8.412-6.843-8.32-15.172C241.552,413.06,245.418,406.344,250.106,406.401z"/>
				<path style="fill:#010101;" d="M249.837,437.795h-0.069c-2.728-0.03-5.218-1.848-7.014-5.121
					c-1.672-3.048-2.568-7.06-2.521-11.294c0.1-9.088,4.41-16.208,9.813-16.208c2.799,0.028,5.289,1.846,7.084,5.119
					c1.67,3.049,2.567,7.061,2.522,11.298C259.553,430.676,255.242,437.795,249.837,437.795z M250.093,407.63
					c-3.953,0-7.321,6.309-7.402,13.776c-0.042,3.82,0.747,7.402,2.219,10.086c1.349,2.459,3.083,3.825,4.885,3.844l0.042,1.229
					v-1.229c3.907,0,7.276-6.308,7.357-13.774c0.04-3.822-0.749-7.406-2.221-10.091C253.626,409.013,251.892,407.648,250.093,407.63
					z"/>
			</g>
		</g>
		<g>
			<g>
				<path style="fill:#010101;" d="M494.89,251.486c0,0-54.593-3.476-75.035-19.046c0,0-11.273,13.499-35.745,17.412
					c0,0,19.334,3.02,35.43,19.013C419.54,268.864,429.605,257.347,494.89,251.486z"/>
				<path style="fill:#010101;" d="M419.603,270.659l-0.93-0.924c-15.633-15.532-34.563-18.64-34.753-18.669l-7.684-1.2l7.679-1.228
					c23.743-3.796,34.886-16.855,34.995-16.986l0.753-0.902l0.934,0.711c19.913,15.166,73.827,18.763,74.369,18.798L495,252.71
					c-64.053,5.751-74.438,16.851-74.535,16.963L419.603,270.659z M389.874,249.971c6.842,2.018,18.849,6.772,29.716,17.225
					c3.426-2.62,17.165-10.532,62.607-15.663c-17.135-1.97-47.247-6.805-62.179-17.446
					C417.314,236.909,407.648,245.813,389.874,249.971z"/>
			</g>
			<g>
				<path style="fill:#FFFFFF;" d="M406.416,250.353c0.127-4.678,6.978-8.291,15.311-8.067c8.325,0.224,14.979,4.203,14.849,8.882
					c-0.125,4.685-6.978,8.3-15.306,8.077C412.936,259.016,406.287,255.041,406.416,250.353z"/>
				<path style="fill:#010101;" d="M422,260.482l-0.762-0.01c-4.241-0.116-8.218-1.163-11.2-2.947
					c-3.203-1.917-4.927-4.475-4.851-7.206c0.144-5.287,6.939-9.272,15.808-9.272l0.764,0.01c4.234,0.114,8.209,1.159,11.194,2.944
					c3.204,1.917,4.928,4.474,4.853,7.199C437.663,256.492,430.869,260.482,422,260.482z M420.995,243.505
					c-7.259,0-13.247,3.087-13.35,6.881c-0.051,1.804,1.249,3.59,3.655,5.03c2.626,1.571,6.179,2.494,10.004,2.598l0.696,0.009
					c7.259,0,13.247-3.09,13.347-6.89c0.051-1.8-1.248-3.583-3.656-5.024c-2.628-1.572-6.179-2.494-9.997-2.596L420.995,243.505z"/>
			</g>
		</g>
		<g>
			<path style="fill:#010101;" d="M204.826,70.993c0,0,0.446,9.754-3.171,15.464c0,0,6.272,2.66,10.323,11.183
				c0,0-0.9-7.396,3.429-15.006C215.407,82.634,208.226,78.107,204.826,70.993z"/>
			<path style="fill:#010101;" d="M214.111,104.992l-3.243-6.823c-3.78-7.953-9.638-10.555-9.697-10.582l-1.322-0.57l0.767-1.217
				c3.372-5.321,2.986-14.657,2.981-14.75l-0.277-6.055l2.614,5.468c3.21,6.717,10.06,11.089,10.128,11.132l0.994,0.626
				l-0.581,1.021c-4.081,7.175-3.286,14.181-3.278,14.25L214.111,104.992z M203.351,85.962c1.65,0.97,4.699,3.144,7.459,7.178
				c0.279-2.719,1.046-6.348,2.989-10.116c-1.642-1.176-5.074-3.889-7.844-7.749C205.725,78.382,205.08,82.589,203.351,85.962z"/>
		</g>
		<g>
			<path style="fill:#010101;" d="M121.662,117.5c0,0,5.09,8.332,4.671,15.079c0,0,6.779-0.689,14.436,4.829
				c0,0-4.354-6.048-4.224-14.805C136.545,122.604,128.069,122.097,121.662,117.5z"/>
			<path style="fill:#010101;" d="M146.181,142.823l-6.131-4.418c-5.791-4.174-10.987-4.625-12.952-4.625
				c-0.389,0-0.615,0.019-0.644,0.021l-1.432,0.136l0.085-1.434c0.39-6.275-4.445-14.283-4.494-14.363l-3.149-5.165l4.916,3.526
				c6.047,4.339,14.158,4.87,14.239,4.875l1.173,0.069l-0.017,1.175c-0.122,8.254,3.952,14.011,3.992,14.069L146.181,142.823z
				 M127.581,131.33c1.931,0.059,5.649,0.503,9.998,2.698c-1.067-2.517-2.144-6.069-2.255-10.308
				c-2.007-0.24-6.322-0.962-10.609-3.01C126.009,123.543,127.473,127.542,127.581,131.33z"/>
		</g>
		<g>
			<path style="fill:#010101;" d="M300,72.697c0,0-5.007,8.381-11.177,11.146c0,0,3.765,5.684,2.444,15.023
				c0,0,3.325-6.666,11.139-10.626C302.406,88.241,298.911,80.508,300,72.697z"/>
			<path style="fill:#010101;" d="M289.005,106.101l1.045-7.405c1.233-8.716-2.218-14.123-2.254-14.176l-0.786-1.205l1.311-0.592
				c5.738-2.572,10.577-10.576,10.625-10.655l3.109-5.193l-0.836,5.992c-1.029,7.374,2.274,14.795,2.308,14.868l0.483,1.072
				l-1.047,0.53c-7.331,3.716-10.563,10.017-10.595,10.081L289.005,106.101z M290.511,84.366c0.842,1.72,2.186,5.216,2.264,10.103
				c1.731-2.115,4.375-4.719,8.074-6.791c-0.721-1.887-2.088-6.04-2.27-10.787C296.673,79.355,293.814,82.509,290.511,84.366z"/>
		</g>
		<g>
			<path style="fill:#010101;" d="M379.175,118.706c0,0-7.997,5.607-14.756,5.614c0,0,1.117,6.718-3.911,14.709
				c0,0,5.764-4.727,14.509-5.151C375.017,133.877,374.988,125.39,379.175,118.706z"/>
			<path style="fill:#010101;" d="M355.444,144.77l4.023-6.396c4.725-7.509,3.75-13.791,3.739-13.853l-0.238-1.43l1.449-0.001
				c6.3-0.007,13.975-5.338,14.051-5.391l4.968-3.484l-3.22,5.141c-3.953,6.312-3.971,14.435-3.971,14.517l0.003,1.174l-1.172,0.058
				c-8.245,0.401-13.735,4.829-13.79,4.874L355.444,144.77z M365.746,125.485c0.066,1.913-0.136,5.652-2.063,10.145
				c2.447-1.223,5.922-2.52,10.144-2.9c0.113-2.018,0.562-6.367,2.337-10.774C373.417,123.427,369.52,125.138,365.746,125.485z"/>
		</g>
		<g>
			<path style="fill:#010101;" d="M71.153,198.44c0,0,8.243,5.232,10.844,11.476c0,0,5.779-3.61,15.084-2.033
				c0,0-6.573-3.509-10.321-11.423C86.761,196.459,78.933,199.741,71.153,198.44z"/>
			<path style="fill:#010101;" d="M81.419,211.714l-0.557-1.326c-2.424-5.818-10.29-10.861-10.369-10.91l-5.119-3.25l5.981,1
				c1.144,0.191,2.364,0.289,3.627,0.289c5.987,0,11.251-2.168,11.304-2.19l1.083-0.452l0.503,1.06
				c3.532,7.46,9.726,10.831,9.788,10.865l6.667,3.558l-7.45-1.262c-1.494-0.253-2.99-0.382-4.446-0.382
				c-6.065,0-9.75,2.225-9.786,2.247L81.419,211.714z M75.306,199.973c2.412,1.971,5.49,4.917,7.259,8.271
				c1.741-0.792,5.269-2.02,10.164-1.987c-2.068-1.79-4.601-4.503-6.573-8.257C84.252,198.667,80.062,199.917,75.306,199.973z"/>
		</g>
		<g>
			<path style="fill:#010101;" d="M97.836,289.305c0,0-9.738,0.732-15.552-2.72c0,0-2.479,6.347-10.88,10.641
				c0,0,7.369-1.116,15.105,2.993C86.509,300.218,90.821,292.91,97.836,289.305z"/>
			<path style="fill:#010101;" d="M86.97,301.855l-1.038-0.552c-4.894-2.6-9.679-2.987-12.095-2.987
				c-1.392,0-2.243,0.124-2.251,0.125l-7.402,1.094l6.66-3.404c7.839-4.006,10.273-9.937,10.296-9.997l0.533-1.336l1.239,0.729
				c5.428,3.221,14.756,2.557,14.833,2.551l6.036-0.448l-5.383,2.767c-6.622,3.404-10.79,10.375-10.831,10.445L86.97,301.855z
				 M75.865,295.931c2.837,0.205,6.446,0.886,10.208,2.69c1.128-1.677,3.74-5.187,7.52-8.069c-3.115-0.14-7.349-0.662-10.764-2.287
				C81.907,289.943,79.821,293.055,75.865,295.931z"/>
		</g>
		<g>
			<g>
				<path style="fill:#010101;" d="M401.204,210.273c0,0,9.756-0.466,15.477,3.139c0,0,2.645-6.277,11.162-10.348
					c0,0-7.394,0.917-15.018-3.398C412.825,199.667,408.317,206.86,401.204,210.273z"/>
				<path style="fill:#010101;" d="M417.245,215.215l-1.219-0.763c-4.254-2.68-11.003-2.969-13.708-2.969
					c-0.653,0-1.04,0.017-1.056,0.018l-6.047,0.284l5.458-2.619c6.694-3.213,11.069-10.083,11.112-10.152l0.624-0.994l1.021,0.577
					c7.12,4.03,14.126,3.262,14.264,3.249l7.419-0.894l-6.739,3.222c-7.947,3.799-10.537,9.662-10.563,9.72L417.245,215.215z
					 M405.479,209.14c3.125,0.227,7.336,0.864,10.7,2.578c0.968-1.653,3.138-4.711,7.173-7.482
					c-2.717-0.273-6.364-1.031-10.134-2.962C412.045,202.92,409.34,206.362,405.479,209.14z"/>
			</g>
		</g>
		<g>
			<path style="fill:#010101;" d="M137.798,360.604c0,0-7.863,5.789-14.624,5.958c0,0,1.275,6.691-3.563,14.795
				c0,0,5.65-4.859,14.386-5.488C133.998,375.87,133.768,367.385,137.798,360.604z"/>
			<path style="fill:#010101;" d="M114.681,387.218l3.876-6.492c4.514-7.561,3.42-13.875,3.41-13.938l-0.261-1.417l1.438-0.04
				c6.287-0.156,13.85-5.662,13.926-5.718l4.876-3.584l-3.092,5.202c-3.805,6.401-3.629,14.523-3.627,14.604l0.031,1.175
				l-1.172,0.084c-8.237,0.592-13.62,5.147-13.673,5.192L114.681,387.218z M124.529,367.696c0.111,1.91-0.002,5.652-1.823,10.188
				c2.416-1.279,5.861-2.657,10.074-3.135c0.066-2.02,0.412-6.38,2.083-10.827C132.152,365.456,128.295,367.259,124.529,367.696z"/>
		</g>
		<g>
			<path style="fill:#010101;" d="M208.561,401.692c0,0-4.229,8.799-10.124,12.117c0,0,4.264,5.314,3.789,14.738
				c0,0,2.713-6.939,10.137-11.588C212.362,416.958,208.182,409.57,208.561,401.692z"/>
			<path style="fill:#010101;" d="M200.624,435.951l0.375-7.466c0.442-8.793-3.483-13.86-3.523-13.911l-0.893-1.128l1.251-0.708
				c5.494-3.091,9.578-11.494,9.619-11.579l2.627-5.464l-0.292,6.056c-0.358,7.414,3.603,14.531,3.644,14.602l0.576,1.022
				L213.015,418c-6.965,4.361-9.619,10.931-9.645,10.996L200.624,435.951z M200.165,414.175c0.994,1.637,2.648,4.995,3.167,9.855
				c1.535-2.262,3.932-5.095,7.429-7.492c-0.889-1.814-2.627-5.828-3.236-10.54C205.85,408.625,203.287,412.024,200.165,414.175z"/>
		</g>
		<g>
			<path style="fill:#010101;" d="M290.552,401.826c0,0,0.447,9.755-3.173,15.468c0,0,6.275,2.659,10.327,11.183
				c0,0-0.903-7.396,3.427-15.008C301.133,413.468,293.951,408.946,290.552,401.826z"/>
			<path style="fill:#010101;" d="M299.842,435.832l-3.247-6.827c-3.781-7.953-9.641-10.555-9.7-10.581l-1.322-0.571l0.767-1.217
				c3.367-5.313,2.988-14.66,2.984-14.755l-0.272-6.047l2.609,5.463c3.208,6.721,10.058,11.086,10.127,11.13l0.994,0.626
				l-0.581,1.021c-4.082,7.179-3.285,14.183-3.277,14.253L299.842,435.832z M289.075,416.798c1.65,0.969,4.702,3.143,7.463,7.177
				c0.277-2.719,1.045-6.349,2.987-10.117c-1.643-1.176-5.075-3.886-7.845-7.747C291.45,409.217,290.806,413.426,289.075,416.798z"
				/>
		</g>
		<g>
			<path style="fill:#010101;" d="M358.785,362.195c0,0,5.953,7.741,6.255,14.496c0,0,6.669-1.411,14.869,3.26
				c0,0-4.974-5.55-5.781-14.27C374.128,365.681,365.65,366.084,358.785,362.195z"/>
			<path style="fill:#010101;" d="M385.871,384.761l-6.57-3.742c-4.787-2.728-9.002-3.299-11.697-3.299
				c-1.445,0-2.304,0.172-2.313,0.173l-1.411,0.29l-0.068-1.437c-0.282-6.295-5.944-13.727-6.002-13.802l-3.697-4.807l5.277,2.989
				c5.468,3.096,12.128,3.337,14.039,3.337c0.398,0,0.626-0.01,0.642-0.011l1.172-0.054l0.109,1.169
				c0.76,8.22,5.425,13.51,5.473,13.563L385.871,384.761z M367.604,375.261c2.176,0,5.239,0.333,8.771,1.667
				c-1.329-2.39-2.778-5.807-3.342-10.008c-2.205-0.029-6.487-0.312-10.868-1.857c1.59,2.681,3.471,6.499,3.982,10.253
				C366.554,375.285,367.043,375.261,367.604,375.261z"/>
		</g>
		<g>
			<path style="fill:#010101;" d="M400.792,292.374c0,0,8.51,4.784,11.441,10.878c0,0,5.579-3.91,14.953-2.833
				c0,0-6.75-3.151-10.917-10.858C416.268,289.562,408.629,293.26,400.792,292.374z"/>
			<path style="fill:#010101;" d="M411.751,305.079l-0.626-1.294c-2.732-5.68-10.854-10.293-10.936-10.339l-5.29-2.974l6.03,0.681
				c7.409,0.84,14.739-2.666,14.803-2.698l1.058-0.51l0.559,1.032c3.928,7.266,10.292,10.3,10.356,10.33l6.85,3.198l-7.51-0.864
				c-1.039-0.119-2.08-0.18-3.096-0.18c-6.883,0-10.974,2.772-11.015,2.8L411.751,305.079z M405.021,293.684
				c2.515,1.84,5.744,4.614,7.689,7.87c1.697-0.885,5.156-2.318,10.04-2.524c-2.159-1.677-4.833-4.252-7.003-7.897
				C413.88,291.902,409.765,293.376,405.021,293.684z"/>
		</g>
	</g>
</g>
</svg>
