<?xml version="1.0" encoding="iso-8859-1"?>
<!-- Generator: Adobe Illustrator 16.0.0, SVG Export Plug-In . SVG Version: 6.00 Build 0)  -->
<!DOCTYPE svg PUBLIC "-//W3C//DTD SVG 1.1//EN" "http://www.w3.org/Graphics/SVG/1.1/DTD/svg11.dtd">
<svg version="1.1" id="Layer_1" xmlns="http://www.w3.org/2000/svg" xmlns:xlink="http://www.w3.org/1999/xlink" x="0px" y="0px"
	 width="140px" height="200px" viewBox="0 0 140 200" style="enable-background:new 0 0 140 200;" xml:space="preserve">
<g>
	<g>
		<path style="fill:#010101;" d="M64.631,162.631c3.945,6.645,5.516,15.291,5.516,15.291s2.221-9.322,5.766-15.789
			c4.26-7.771,11.783-10.029,11.783-10.029s-4.072-2.227-9.109-7.268c-4.762-4.762-5.555-15.98-5.555-15.98
			c-0.793-4.066,4.191-13.811,7.813-16.949c3.758-3.256,10.777-5.264,10.777-5.264s-7.52-1.252-11.027,1.254
			c-4.443,3.172-9.947,8.854-9.947,8.854l-0.082-20.885c0,0,4.133-14.92,12.115-11.359c6.936,3.088,2.424,10.107,2.424,10.107
			s6.307-5.055,4.43-10.441c-2.506-7.186-16.881-4.512-16.881-4.512s5.057-5.113,3.553-11.379c-0.928-3.873-5.559-6.668-5.559-6.668
			V46.91c1.881-5.232,10.861-4.176,10.861-4.176s-3.719-4.414-6.475-10.557c-1.703-3.791-4.762-12.449-4.762-12.449
			s-1.291,3.525-4.764,11.322c-3.59,8.08-7.729,11.516-7.729,11.516s9.693-1.172,11.531,5.348l-0.33,13.363
			c1.531-1.199-4.137,3.244-5.309,7.254c-1.754,6.016,3.008,11.529,3.008,11.529s-9.602-3.357-15.08,1.938
			c-5.014,4.848-0.84,10.775,4.676,14.119c0,0-5.799-9.912,2.34-11.445c8.439-1.588,11.047,11.557,10.445,11.193l-0.168,20.637
			c0,0-5.117-5.447-8.605-7.604c-5.266-3.258-11.783-2.506-11.783-2.506s8.029,2.617,11.617,7.27
			c5.635,7.316,6.516,15.135,6.516,15.135s0.627,9.875-4.514,16.039c-2.502,3.01-10.086,7.08-10.086,7.08
			S59.873,154.613,64.631,162.631z"/>
		<path style="fill:#010101;" d="M69.986,183.898l-1.049-5.758c-0.016-0.084-1.582-8.514-5.363-14.881
			c-4.457-7.512-11.865-10.156-11.939-10.182l-2.643-0.918l2.465-1.326c0.072-0.039,7.4-3.992,9.723-6.783
			c4.756-5.707,4.236-15.082,4.23-15.176c-0.004-0.014-0.92-7.527-6.262-14.463c-3.318-4.303-10.949-6.826-11.025-6.85l-5.314-1.732
			l5.553-0.656c0,0,0.707-0.084,1.852-0.084c2.336,0,6.834,0.359,10.721,2.764c2.182,1.348,4.906,3.859,6.754,5.674l0.152-18.486
			c-0.295-1.541-1.447-5.129-3.617-7.344c-1.557-1.588-3.307-2.211-5.381-1.818c-1.561,0.293-2.545,0.93-3.008,1.943
			c-1.07,2.34,0.723,6.334,1.504,7.676l2.43,4.172l-4.129-2.5c-4.297-2.605-7.092-6.18-7.471-9.557
			c-0.266-2.365,0.625-4.613,2.578-6.5c2.287-2.211,5.426-3.332,9.328-3.332c1.418,0,2.74,0.152,3.85,0.344
			c-1.281-2.373-2.572-6.025-1.432-9.938c0.777-2.664,3.197-5.422,5.271-7.404l0.314-12.705c-1.201-3.793-5.881-4.365-8.592-4.365
			c-0.916,0-1.529,0.068-1.561,0.074l-4.09,0.482l3.156-2.646c0.039-0.035,3.982-3.396,7.393-11.07
			c3.41-7.658,4.721-11.211,4.732-11.246l1.176-3.205l1.139,3.219c0.029,0.086,3.061,8.652,4.723,12.354
			c2.648,5.9,6.258,10.227,6.295,10.27l1.988,2.365l-3.072-0.354c-0.105-0.016-7.813-0.816-9.49,3.184v13.814
			c1.375,0.953,4.691,3.564,5.525,7.043c1,4.164-0.564,7.811-1.994,10.08c0.896-0.076,1.941-0.133,3.059-0.133
			c6.672,0,10.9,2.014,12.229,5.824c2.139,6.137-4.535,11.574-4.82,11.805l-5.775,4.629l3.971-6.25
			c0.018-0.027,1.816-2.9,1.066-5.389c-0.379-1.258-1.346-2.217-2.955-2.936c-0.658-0.293-1.305-0.441-1.922-0.441
			c-4.391,0-7.549,7.68-8.463,10.848l0.068,17.773c2.033-1.969,5.207-4.904,8.016-6.91c1.668-1.191,4.205-1.795,7.545-1.795
			c2.391,0,4.318,0.316,4.4,0.33l5.369,0.893l-5.232,1.5c-0.068,0.02-6.807,1.975-10.313,5.012c-3.41,2.955-8.1,12.25-7.41,15.783
			c0.027,0.256,0.84,10.969,5.217,15.348c4.832,4.838,8.791,7.037,8.83,7.061l2.555,1.402l-2.791,0.852
			c-0.07,0.021-7.107,2.234-11.059,9.441c-3.426,6.25-5.627,15.393-5.648,15.482L69.986,183.898z M54.758,151.789
			c2.811,1.449,7.574,4.563,10.93,10.217c2.182,3.674,3.648,7.885,4.541,11.023c1.014-3.313,2.594-7.814,4.605-11.486
			c3.002-5.479,7.496-8.352,10.203-9.672c-1.717-1.182-4.352-3.195-7.318-6.166c-5.029-5.029-5.879-16.287-5.912-16.764
			c-0.91-4.607,4.541-14.764,8.23-17.963c1.541-1.334,3.561-2.459,5.463-3.336c-1.838,0.168-3.268,0.594-4.191,1.254
			c-4.301,3.07-9.725,8.654-9.781,8.709l-1.426,1.473l-0.004,0.498l-0.236-0.25l-0.432,0.447l-0.004-0.912l-1.428-1.52
			c-0.051-0.053-5.049-5.354-8.355-7.396c-1.389-0.859-2.881-1.418-4.301-1.777c2.096,1.221,4.262,2.809,5.754,4.744
			c5.777,7.502,6.725,15.416,6.764,15.748c0.031,0.482,0.6,10.496-4.791,16.963C61.287,147.764,57.264,150.314,54.758,151.789z
			 M60,83.309c6.039,0,9.059,6.586,10.021,10.277c1.316-3.596,4.666-10.857,10.236-10.857c0.965,0,1.947,0.219,2.922,0.654
			c2.275,1.014,3.727,2.523,4.314,4.486c0.16,0.537,0.244,1.076,0.27,1.607c0.771-1.475,1.205-3.189,0.609-4.9
			C87.17,81.125,82.32,80.4,78.465,80.4c-3.035,0-5.563,0.463-5.588,0.467l-3.342,0.619l1.07,1.236l-4.33-1.502
			c-0.029-0.01-2.865-0.982-6.201-0.982c-3.244,0-5.807,0.891-7.619,2.643c-1.404,1.355-2.023,2.855-1.844,4.457
			c0.182,1.627,1.205,3.4,2.832,5.035c-0.461-1.789-0.635-3.842,0.152-5.568c0.807-1.77,2.42-2.895,4.791-3.342
			C58.947,83.357,59.484,83.309,60,83.309z M69.605,62.42c-2.559,2.422-4.242,4.703-4.754,6.457
			c-1.549,5.311,2.715,10.33,2.76,10.381l1.74,2.014l2.426-2.475c0.045-0.047,4.553-4.725,3.232-10.229
			c-0.795-3.318-4.959-5.877-5-5.902L69.605,62.42z M60.701,41.289c4.334,0.25,7.516,1.859,9.064,4.551
			c1.73-3.545,6.201-4.316,9.201-4.412c-1.367-1.912-3.375-5.006-5.055-8.748c-1.072-2.385-2.645-6.59-3.695-9.471
			c-0.764,1.861-1.924,4.609-3.584,8.342C64.557,36.223,62.299,39.393,60.701,41.289z"/>
	</g>
	<g>
		<path style="fill:#FFFFFF;" d="M74.578,151.691c0,5.627-2.02,10.189-4.514,10.189c-2.492,0-4.512-4.563-4.512-10.189
			c0-5.631,2.02-10.193,4.512-10.193C72.559,141.498,74.578,146.061,74.578,151.691z"/>
		<path style="fill:#FFFFFF;" d="M70.064,163.109c-3.273,0-5.742-4.908-5.742-11.418c0-6.512,2.469-11.424,5.742-11.424
			s5.742,4.912,5.742,11.424C75.807,158.201,73.338,163.109,70.064,163.109z M70.064,142.727c-1.34,0-3.283,3.492-3.283,8.965
			c0,5.471,1.943,8.961,3.283,8.961s3.285-3.49,3.285-8.961C73.35,146.219,71.404,142.727,70.064,142.727z"/>
	</g>
	<g>
		<path style="fill:#FFFFFF;" d="M73.238,70.65c0,3.139-1.492,5.682-3.342,5.682c-1.846,0-3.342-2.543-3.342-5.682
			c0-3.137,1.496-5.682,3.342-5.682C71.746,64.969,73.238,67.514,73.238,70.65z"/>
		<path style="fill:#FFFFFF;" d="M69.896,77.561c-2.563,0-4.57-3.033-4.57-6.91c0-3.875,2.008-6.91,4.57-6.91s4.57,3.035,4.57,6.91
			C74.467,74.527,72.459,77.561,69.896,77.561z M69.896,66.199c-0.977,0-2.111,1.945-2.111,4.451c0,2.508,1.135,4.453,2.111,4.453
			s2.113-1.945,2.113-4.453C72.01,68.145,70.873,66.199,69.896,66.199z"/>
	</g>
</g>
</svg>
